<svg version="1.1" baseProfile="full" xmlns="http://www.w3.org/2000/svg"
width="619.2" height="1024"
viewBox="-7.4 -26.11 31.43 51.97"
>
<rect x="-7.4" y="-26.11" width="100%" height="100%" fill="white" />
<path stroke="green" stroke-width="0.04" stroke-linecap="round" fill="none"
transform="scale(1 -1)"
d="	M 0 0
	L 0 1
	L -0.3827 1.924
	L -1.09 2.631
	L -1.472 3.555
	L -1.472 4.555
	L -1.09 5.479
	L -1.09 6.479
	L -0.7071 7.403
	L -3.331e-16 8.11
	L 0.3827 9.034
	L 1.09 9.741
	L 1.472 10.66
	L 1.472 11.66
	L 1.09 12.59
	L 0.3827 13.3
	L 5.551e-17 14.22
	L 0 15.22
	L 0.3827 16.14
	L 0.3827 17.14
	L 0.7654 18.07
	L 1.472 18.77
	L 1.855 19.7
	L 2.562 20.41
	L 2.945 21.33
	L 2.945 22.33
	L 3.328 23.25
	L 4.035 23.96
	L 4.959 24.34
	L 5.959 24.34
	L 6.882 24.73
	L 7.882 24.73
	L 8.806 25.11
	M 0 0
	L 1 -1.11e-16
	L 1.924 -0.3827
	L 2.924 -0.3827
	L 3.848 -3.331e-16
	L 4.555 0.7071
	L 5.479 1.09
	L 6.479 1.09
	L 7.403 1.472
	L 8.403 1.472
	L 9.327 1.855
	L 10.03 2.562
	L 10.42 3.486
	L 11.12 4.193
	L 12.05 4.576
	L 13.05 4.576
	L 13.97 4.959
	L 14.68 5.666
	L 15.6 6.048
	L 16.31 6.756
	L 17.23 7.138
	L 18.23 7.138
	L 19.16 6.756
	L 19.86 6.048
	L 20.25 5.125
	L 20.25 4.125
	L 20.63 3.201
	L 20.63 2.201
	L 21.01 1.277
	L 21.01 0.2768
	L 21.39 -0.6471
	L 22.1 -1.354
	L 23.03 -1.737
	M 0 0
	L -1 -1.11e-16
	L -1.924 -0.3827
	L -2.631 -1.09
	L -3.014 -2.014
	L -3.014 -3.014
	L -3.396 -3.938
	L -4.103 -4.645
	L -4.486 -5.569
	L -4.486 -6.569
	L -4.869 -7.492
	L -4.869 -8.492
	L -5.252 -9.416
	L -5.252 -10.42
	L -5.634 -11.34
	L -5.634 -12.34
	L -6.017 -13.26
	L -6.017 -14.26
	L -6.4 -15.19
	L -6.4 -16.19
	L -6.017 -17.11
	L -5.31 -17.82
	L -4.386 -18.2
	L -3.386 -18.2
	L -2.462 -18.58
	L -1.755 -19.29
	L -0.831 -19.67
	L -0.1239 -20.38
	L 0.2588 -21.31
	L 0.2588 -22.31
	L 0.6414 -23.23
	L 1.349 -23.94
	L 1.731 -24.86
	M 0 0
	L 1.665e-16 -1
	L -0.3827 -1.924
	L -1.09 -2.631
	L -1.472 -3.555
	L -1.472 -4.555
	L -1.09 -5.479
	L -0.3827 -6.186
	L 0.5412 -6.569
	L 1.248 -7.276
	L 2.172 -7.658
	L 3.172 -7.658
	L 4.096 -7.276
	L 4.803 -6.569
	L 5.186 -5.645
	L 5.893 -4.938
	L 6.276 -4.014
	L 6.983 -3.307
	L 7.907 -2.924
	L 8.907 -2.924
	L 9.831 -3.307
	L 10.83 -3.307
	L 11.75 -2.924
	L 12.75 -2.924
	L 13.68 -2.541
	L 14.68 -2.541
	L 15.6 -2.159
	L 16.31 -1.451
	L 17.23 -1.069
	L 17.94 -0.3616
	L 18.32 0.5623
	L 19.03 1.269
	L 19.95 1.652
"/>
</svg>
