<svg version="1.1" baseProfile="full" xmlns="http://www.w3.org/2000/svg"
width="1024" height="599.5"
viewBox="-1 -107.9 209.7 122.7"
>
<rect x="-1" y="-107.9" width="100%" height="100%" fill="white" />
<path stroke="green" stroke-width="0.04" stroke-linecap="round" fill="none"
transform="scale(1 -1)"
d="	M 0 0
	L 0.9877 0.1564
	L 1.975 0.3129
	L 2.975 0.3129
	L 3.975 0.3129
	L 4.975 0.3129
	L 5.975 0.3129
	L 6.963 0.4693
	L 7.951 0.6257
	L 8.938 0.7822
	L 9.926 0.9386
	L 10.93 0.9386
	L 11.93 0.9386
	L 12.93 0.9386
	L 13.93 0.9386
	L 14.91 0.7822
	L 15.9 0.6257
	L 16.89 0.4693
	L 17.88 0.3129
	L 18.83 0.003852
	L 19.78 -0.3052
	L 20.73 -0.6142
	L 21.68 -0.9232
	L 22.57 -1.377
	L 23.46 -1.831
	L 24.35 -2.285
	L 25.25 -2.739
	L 26.2 -3.048
	L 27.15 -3.357
	L 28.1 -3.666
	L 29.05 -3.975
	L 30.04 -4.132
	L 31.02 -4.288
	L 32.01 -4.445
	L 33 -4.601
	L 34 -4.601
	L 35 -4.601
	L 36 -4.601
	L 37 -4.601
	L 37.99 -4.757
	L 38.98 -4.914
	L 39.96 -5.07
	L 40.95 -5.227
	L 41.11 -4.239
	L 40.8 -3.288
	M 41.11 -4.239
	L 41.26 -3.251
	L 41.85 -2.442
	M 41.26 -3.251
	L 41.42 -2.264
	L 42.01 -1.455
	L 42.16 -0.4669
	M 42.01 -1.455
	L 42.6 -0.6456
	M 41.42 -2.264
	L 41.58 -1.276
	L 41.27 -0.3249
	M 41.58 -1.276
	L 41.73 -0.2883
	L 42.32 0.5208
	L 42.48 1.508
	M 42.32 0.5208
	L 42.91 1.33
	L 43.07 2.317
	L 43.65 3.126
	M 43.07 2.317
	L 43.22 3.305
	M 42.91 1.33
	L 43.5 2.139
	L 43.65 3.126
	M 43.5 2.139
	L 44.08 2.948
	L 44.98 3.402
	M 44.08 2.948
	L 44.67 3.757
	L 45.56 4.211
	L 46.56 4.211
	M 45.56 4.211
	L 46.45 4.665
	M 44.67 3.757
	L 45.26 4.566
	L 45.42 5.554
	M 45.26 4.566
	L 45.85 5.375
	L 46.74 5.829
	M 45.85 5.375
	L 46.44 6.184
	M 41.73 -0.2883
	L 41.89 0.6994
	L 41.58 1.65
	M 41.89 0.6994
	L 42.05 1.687
	L 42.63 2.496
	M 42.05 1.687
	L 42.2 2.675
	L 41.89 3.626
	L 41.19 4.333
	M 41.89 3.626
	L 41.58 4.577
	L 41.74 5.565
	M 41.58 4.577
	L 41.28 5.528
	M 42.2 2.675
	L 42.36 3.662
	L 42.95 4.472
	M 42.36 3.662
	L 42.52 4.65
	L 43.1 5.459
	L 43.99 5.913
	M 43.1 5.459
	L 43.69 6.268
	M 42.52 4.65
	L 42.67 5.638
	L 43.26 6.447
	M 42.67 5.638
	L 42.83 6.626
	L 43.42 7.435
	L 43.57 8.422
	M 43.42 7.435
	L 44 8.244
	L 44.16 9.231
	L 43.85 10.18
	M 44.16 9.231
	L 44.32 10.22
	M 44 8.244
	L 44.59 9.053
	L 44.75 10.04
	M 44.59 9.053
	L 45.18 9.862
	L 46.07 10.32
	M 45.18 9.862
	L 45.77 10.67
	L 45.92 11.66
	L 45.61 12.61
	M 45.92 11.66
	L 46.08 12.65
	L 46.67 13.46
	M 46.08 12.65
	L 46.24 13.63
	L 45.93 14.58
	L 45.22 15.29
	M 45.93 14.58
	L 45.62 15.54
	L 45.77 16.52
	M 45.62 15.54
	L 45.31 16.49
	M 46.24 13.63
	L 46.39 14.62
	L 46.08 15.57
	M 46.39 14.62
	L 46.55 15.61
	M 45.77 10.67
	L 46.35 11.48
	L 47.25 11.93
	M 46.35 11.48
	L 46.94 12.29
	L 47.1 13.28
	L 46.79 14.23
	M 47.1 13.28
	L 47.26 14.26
	L 47.84 15.07
	M 47.26 14.26
	L 47.41 15.25
	M 46.94 12.29
	L 47.53 13.1
	L 48.42 13.55
	M 47.53 13.1
	L 48.12 13.91
	L 49.01 14.36
	L 49.6 15.17
	M 49.01 14.36
	L 49.9 14.81
	L 50.9 14.81
	M 49.9 14.81
	L 50.79 15.27
	M 48.12 13.91
	L 48.71 14.72
	L 48.86 15.7
	M 48.71 14.72
	L 49.29 15.52
	L 50.18 15.98
	L 51.18 15.98
	M 50.18 15.98
	L 51.08 16.43
	L 51.66 17.24
	L 52.55 17.7
	M 51.66 17.24
	L 52.25 18.05
	M 51.08 16.43
	L 51.97 16.89
	L 52.97 16.89
	M 51.97 16.89
	L 52.86 17.34
	M 49.29 15.52
	L 49.88 16.33
	L 50.77 16.79
	M 49.88 16.33
	L 50.47 17.14
	L 51.36 17.6
	L 52.36 17.6
	M 51.36 17.6
	L 52.25 18.05
	M 50.47 17.14
	L 51.06 17.95
	L 51.95 18.41
	M 51.06 17.95
	L 51.64 18.76
	M 42.83 6.626
	L 42.98 7.613
	L 42.68 8.564
	M 42.98 7.613
	L 43.14 8.601
	L 43.73 9.41
	M 43.14 8.601
	L 43.3 9.589
	L 42.99 10.54
	L 42.28 11.25
	M 42.99 10.54
	L 42.68 11.49
	L 42.84 12.48
	M 42.68 11.49
	L 42.37 12.44
	M 43.3 9.589
	L 43.45 10.58
	L 43.14 11.53
	M 43.45 10.58
	L 43.61 11.56
	L 44.2 12.37
	M 43.61 11.56
	L 43.77 12.55
	L 44.35 13.36
	L 44.51 14.35
	M 44.35 13.36
	L 44.94 14.17
	L 45.83 14.62
	L 46.42 15.43
	M 45.83 14.62
	L 46.72 15.08
	M 44.94 14.17
	L 45.53 14.98
	L 45.69 15.97
	M 45.53 14.98
	L 46.12 15.79
	L 47.01 16.24
	M 46.12 15.79
	L 46.71 16.6
	M 43.77 12.55
	L 43.92 13.54
	L 43.61 14.49
	M 43.92 13.54
	L 44.08 14.53
	L 44.67 15.34
	M 44.08 14.53
	L 44.24 15.51
	L 43.93 16.47
	L 44.08 17.45
	M 43.93 16.47
	L 43.62 17.42
	M 44.24 15.51
	L 44.39 16.5
	L 44.98 17.31
	M 44.39 16.5
	L 44.55 17.49
	L 45.14 18.3
	L 46.03 18.75
	M 45.14 18.3
	L 45.72 19.11
	M 44.55 17.49
	L 44.71 18.48
	L 45.29 19.29
	M 44.71 18.48
	L 44.86 19.47
	L 44.55 20.42
	L 44.71 21.4
	M 44.55 20.42
	L 44.24 21.37
	L 43.54 22.07
	L 43.23 23.03
	M 43.54 22.07
	L 42.83 22.78
	M 44.24 21.37
	L 43.93 22.32
	L 43.23 23.03
	M 43.93 22.32
	L 43.63 23.27
	L 43.78 24.26
	L 43.47 25.21
	M 43.78 24.26
	L 43.94 25.25
	M 43.63 23.27
	L 43.32 24.22
	L 42.61 24.93
	M 43.32 24.22
	L 43.01 25.17
	L 42.3 25.88
	L 41.35 26.19
	M 42.3 25.88
	L 41.59 26.59
	L 41.28 27.54
	M 41.59 26.59
	L 40.89 27.29
	L 39.94 27.6
	L 38.95 27.45
	M 39.94 27.6
	L 38.98 27.91
	M 40.89 27.29
	L 40.18 28
	L 39.87 28.95
	M 40.18 28
	L 39.47 28.71
	L 39.16 29.66
	L 39.32 30.65
	M 39.16 29.66
	L 38.85 30.61
	M 39.47 28.71
	L 38.76 29.41
	L 37.81 29.72
	M 38.76 29.41
	L 38.06 30.12
	L 37.75 31.07
	M 38.06 30.12
	L 37.35 30.83
	M 43.01 25.17
	L 42.7 26.12
	L 41.99 26.83
	M 42.7 26.12
	L 42.39 27.07
	L 42.55 28.06
	L 42.24 29.01
	M 42.55 28.06
	L 42.7 29.05
	M 42.39 27.07
	L 42.08 28.03
	L 41.37 28.73
	M 42.08 28.03
	L 41.77 28.98
	L 41.93 29.96
	L 41.62 30.91
	M 41.93 29.96
	L 42.08 30.95
	L 42.67 31.76
	M 42.08 30.95
	L 42.24 31.94
	L 42.83 32.75
	L 42.99 33.74
	M 42.83 32.75
	L 43.42 33.56
	L 44.31 34.01
	M 43.42 33.56
	L 44 34.37
	M 42.24 31.94
	L 42.4 32.93
	L 42.09 33.88
	M 42.4 32.93
	L 42.55 33.91
	L 43.14 34.72
	M 42.55 33.91
	L 42.71 34.9
	M 41.77 28.98
	L 41.46 29.93
	L 40.76 30.63
	M 41.46 29.93
	L 41.15 30.88
	L 41.31 31.87
	M 41.15 30.88
	L 40.84 31.83
	L 40.14 32.54
	L 39.83 33.49
	M 40.14 32.54
	L 39.43 33.24
	M 40.84 31.83
	L 40.54 32.78
	L 39.83 33.49
	M 40.54 32.78
	L 40.23 33.73
	L 40.38 34.72
	M 40.23 33.73
	L 39.92 34.68
	L 40.07 35.67
	L 40.66 36.48
	M 40.07 35.67
	L 40.23 36.66
	L 39.92 37.61
	L 39.21 38.32
	M 39.92 37.61
	L 39.61 38.56
	L 39.77 39.55
	M 39.61 38.56
	L 39.3 39.51
	M 40.23 36.66
	L 40.39 37.65
	L 40.08 38.6
	M 40.39 37.65
	L 40.54 38.63
	L 40.23 39.58
	L 39.53 40.29
	M 40.23 39.58
	L 39.93 40.54
	L 40.08 41.52
	M 39.93 40.54
	L 39.62 41.49
	L 39.77 42.47
	L 39.46 43.43
	M 39.77 42.47
	L 39.93 43.46
	L 40.52 44.27
	M 39.93 43.46
	L 40.09 44.45
	M 39.62 41.49
	L 39.31 42.44
	L 38.6 43.14
	M 39.31 42.44
	L 39 43.39
	M 40.54 38.63
	L 40.7 39.62
	L 40.39 40.57
	M 40.7 39.62
	L 40.86 40.61
	L 40.55 41.56
	L 40.7 42.55
	M 40.55 41.56
	L 40.24 42.51
	M 40.86 40.61
	L 41.01 41.6
	L 40.7 42.55
	M 41.01 41.6
	L 41.17 42.58
	L 41.76 43.39
	M 41.17 42.58
	L 41.33 43.57
	L 41.91 44.38
	L 42.8 44.83
	M 41.91 44.38
	L 42.5 45.19
	L 42.66 46.18
	L 42.35 47.13
	M 42.66 46.18
	L 42.81 47.17
	L 43.4 47.97
	M 42.81 47.17
	L 42.97 48.15
	M 42.5 45.19
	L 43.09 46
	L 43.25 46.99
	M 43.09 46
	L 43.68 46.81
	L 44.57 47.26
	M 43.68 46.81
	L 44.26 47.62
	M 41.33 43.57
	L 41.48 44.56
	L 41.17 45.51
	M 41.48 44.56
	L 41.64 45.55
	L 42.23 46.36
	M 41.64 45.55
	L 41.79 46.53
	L 41.49 47.49
	L 40.78 48.19
	M 41.49 47.49
	L 41.18 48.44
	M 41.79 46.53
	L 41.95 47.52
	L 41.64 48.47
	M 41.95 47.52
	L 42.11 48.51
	L 42.7 49.32
	M 42.11 48.51
	L 42.26 49.5
	M 39.92 34.68
	L 39.61 35.63
	L 39.76 36.62
	M 39.61 35.63
	L 39.3 36.58
	L 39.46 37.57
	L 39.15 38.52
	M 39.46 37.57
	L 39.61 38.56
	M 39.3 36.58
	L 38.99 37.54
	L 39.15 38.52
	M 38.99 37.54
	L 38.68 38.49
	L 37.97 39.19
	L 37.02 39.5
	M 37.97 39.19
	L 37.27 39.9
	L 36.32 40.21
	L 35.33 40.05
	M 36.32 40.21
	L 35.37 40.52
	M 37.27 39.9
	L 36.56 40.61
	L 35.61 40.92
	M 36.56 40.61
	L 35.85 41.32
	L 35.54 42.27
	L 34.84 42.97
	M 35.54 42.27
	L 35.23 43.22
	L 35.39 44.2
	M 35.23 43.22
	L 34.93 44.17
	M 35.85 41.32
	L 35.15 42.02
	L 34.19 42.33
	M 35.15 42.02
	L 34.44 42.73
	L 34.13 43.68
	M 34.44 42.73
	L 33.73 43.44
	M 38.68 38.49
	L 38.37 39.44
	L 37.67 40.14
	M 38.37 39.44
	L 38.06 40.39
	L 38.22 41.38
	L 38.81 42.19
	M 38.22 41.38
	L 38.38 42.36
	M 38.06 40.39
	L 37.75 41.34
	L 37.91 42.33
	M 37.75 41.34
	L 37.45 42.29
	L 37.6 43.28
	L 38.19 44.09
	M 37.6 43.28
	L 37.76 44.27
	L 38.35 45.08
	L 38.5 46.06
	M 38.35 45.08
	L 38.93 45.88
	M 37.76 44.27
	L 37.91 45.25
	L 37.61 46.2
	M 37.91 45.25
	L 38.07 46.24
	L 38.66 47.05
	M 38.07 46.24
	L 38.23 47.23
	M 37.45 42.29
	L 37.14 43.24
	L 37.29 44.23
	M 37.14 43.24
	L 36.83 44.19
	L 36.12 44.9
	L 35.17 45.21
	M 36.12 44.9
	L 35.41 45.61
	L 35.1 46.56
	M 35.41 45.61
	L 34.71 46.31
	M 36.83 44.19
	L 36.52 45.14
	L 36.67 46.13
	M 36.52 45.14
	L 36.21 46.1
	L 36.37 47.08
	L 36.06 48.03
	M 36.37 47.08
	L 36.52 48.07
	M 36.21 46.1
	L 35.9 47.05
	L 36.06 48.03
	M 35.9 47.05
	L 35.59 48
	M 44.86 19.47
	L 45.02 20.45
	L 45.61 21.26
	M 45.02 20.45
	L 45.17 21.44
	L 45.76 22.25
	L 46.65 22.7
	M 45.76 22.25
	L 46.35 23.06
	M 45.17 21.44
	L 45.33 22.43
	L 45.02 23.38
	M 45.33 22.43
	L 45.49 23.42
	L 45.18 24.37
	L 45.33 25.36
	M 45.18 24.37
	L 44.87 25.32
	L 45.03 26.31
	L 45.61 27.12
	M 45.03 26.31
	L 45.18 27.29
	M 44.87 25.32
	L 44.56 26.27
	L 43.85 26.98
	M 44.56 26.27
	L 44.25 27.22
	M 45.49 23.42
	L 45.64 24.4
	L 45.33 25.36
	M 45.64 24.4
	L 45.8 25.39
	L 46.39 26.2
	M 45.8 25.39
	L 45.96 26.38
	L 45.65 27.33
	L 45.8 28.32
	M 45.65 27.33
	L 45.34 28.28
	M 45.96 26.38
	L 46.11 27.37
	L 45.8 28.32
	M 46.11 27.37
	L 46.27 28.35
	L 46.86 29.16
	M 46.27 28.35
	L 46.43 29.34
	L 47.01 30.15
	L 47.17 31.14
	M 47.01 30.15
	L 47.6 30.96
	L 48.49 31.41
	M 47.6 30.96
	L 48.19 31.77
	L 48.35 32.76
	L 48.93 33.57
	M 48.35 32.76
	L 48.5 33.74
	M 48.19 31.77
	L 48.78 32.58
	L 48.93 33.57
	M 48.78 32.58
	L 49.37 33.39
	L 50.26 33.84
	L 50.84 34.65
	M 50.26 33.84
	L 51.15 34.3
	L 52.15 34.3
	M 51.15 34.3
	L 52.04 34.75
	M 49.37 33.39
	L 49.95 34.2
	L 50.11 35.18
	M 49.95 34.2
	L 50.54 35.01
	L 51.43 35.46
	M 50.54 35.01
	L 51.13 35.81
	M 46.43 29.34
	L 46.58 30.33
	L 47.17 31.14
	M 46.58 30.33
	L 46.74 31.32
	L 46.43 32.27
	L 45.72 32.98
	M 46.43 32.27
	L 46.12 33.22
	L 46.28 34.21
	M 46.12 33.22
	L 45.81 34.17
	M 46.74 31.32
	L 46.9 32.31
	L 46.59 33.26
	M 46.9 32.31
	L 47.05 33.29
	L 47.64 34.1
	L 48.53 34.56
	M 47.64 34.1
	L 48.23 34.91
	M 47.05 33.29
	L 47.21 34.28
	L 46.9 35.23
	M 47.21 34.28
	L 47.36 35.27
	L 47.06 36.22
	L 47.21 37.21
	M 47.06 36.22
	L 46.75 37.17
	L 46.9 38.16
	L 46.59 39.11
	M 46.9 38.16
	L 47.06 39.15
	L 47.65 39.96
	M 47.06 39.15
	L 47.22 40.13
	M 46.75 37.17
	L 46.44 38.12
	L 45.73 38.83
	M 46.44 38.12
	L 46.13 39.07
	L 45.42 39.78
	L 44.47 40.09
	M 45.42 39.78
	L 44.71 40.49
	L 44.41 41.44
	M 44.71 40.49
	L 44.01 41.19
	L 43.06 41.5
	L 42.07 41.35
	M 43.06 41.5
	L 42.11 41.81
	L 41.4 42.52
	M 42.11 41.81
	L 41.15 42.12
	M 44.01 41.19
	L 43.3 41.9
	L 42.35 42.21
	M 43.3 41.9
	L 42.59 42.61
	M 46.13 39.07
	L 45.82 40.02
	L 45.11 40.73
	M 45.82 40.02
	L 45.51 40.97
	L 45.67 41.96
	M 45.51 40.97
	L 45.2 41.93
	L 44.49 42.63
	L 43.54 42.94
	M 44.49 42.63
	L 43.79 43.34
	L 43.48 44.29
	M 43.79 43.34
	L 43.08 44.05
	M 45.2 41.93
	L 44.89 42.88
	L 44.19 43.58
	M 44.89 42.88
	L 44.58 43.83
	L 44.74 44.82
	M 44.58 43.83
	L 44.27 44.78
	L 44.43 45.77
	L 44.12 46.72
	M 44.43 45.77
	L 44.59 46.75
	L 45.18 47.56
	M 44.59 46.75
	L 44.74 47.74
	L 45.33 48.55
	L 46.22 49.01
	M 45.33 48.55
	L 45.92 49.36
	M 44.74 47.74
	L 44.9 48.73
	L 44.59 49.68
	M 44.9 48.73
	L 45.06 49.72
	M 44.27 44.78
	L 43.97 45.73
	L 43.26 46.44
	M 43.97 45.73
	L 43.66 46.68
	L 43.81 47.67
	M 43.66 46.68
	L 43.35 47.63
	L 42.64 48.34
	L 42.33 49.29
	M 42.64 48.34
	L 41.93 49.05
	M 43.35 47.63
	L 43.04 48.58
	L 42.33 49.29
	M 43.04 48.58
	L 42.73 49.53
	L 42.89 50.52
	M 42.73 49.53
	L 42.42 50.49
	L 42.58 51.47
	L 42.27 52.42
	M 42.58 51.47
	L 42.73 52.46
	M 42.42 50.49
	L 42.11 51.44
	L 41.4 52.14
	M 42.11 51.44
	L 41.8 52.39
	M 47.36 35.27
	L 47.52 36.26
	L 47.21 37.21
	M 47.52 36.26
	L 47.68 37.24
	L 48.27 38.05
	M 47.68 37.24
	L 47.83 38.23
	L 48.42 39.04
	L 48.58 40.03
	M 48.42 39.04
	L 49.01 39.85
	L 49.9 40.3
	M 49.01 39.85
	L 49.6 40.66
	M 47.83 38.23
	L 47.99 39.22
	L 47.68 40.17
	M 47.99 39.22
	L 48.15 40.21
	L 47.84 41.16
	L 47.13 41.87
	M 47.84 41.16
	L 47.53 42.11
	L 47.69 43.1
	L 47.38 44.05
	M 47.69 43.1
	L 47.84 44.08
	L 48.43 44.89
	M 47.84 44.08
	L 48 45.07
	M 47.53 42.11
	L 47.22 43.06
	L 47.38 44.05
	M 47.22 43.06
	L 46.91 44.01
	M 48.15 40.21
	L 48.3 41.19
	L 48.89 42
	M 48.3 41.19
	L 48.46 42.18
	L 49.05 42.99
	L 49.94 43.45
	M 49.05 42.99
	L 49.64 43.8
	M 48.46 42.18
	L 48.62 43.17
	L 49.2 43.98
	M 48.62 43.17
	L 48.77 44.16
	L 49.36 44.97
	L 49.52 45.95
	M 49.36 44.97
	L 49.95 45.78
	L 50.1 46.76
	L 50.69 47.57
	M 50.1 46.76
	L 50.26 47.75
	M 49.95 45.78
	L 50.54 46.58
	L 51.43 47.04
	M 50.54 46.58
	L 51.12 47.39
	M 48.77 44.16
	L 48.93 45.15
	L 48.62 46.1
	M 48.93 45.15
	L 49.09 46.13
	L 48.78 47.08
	L 48.07 47.79
	M 48.78 47.08
	L 48.47 48.04
	L 48.62 49.02
	M 48.47 48.04
	L 48.16 48.99
	M 49.09 46.13
	L 49.24 47.12
	L 48.93 48.07
	M 49.24 47.12
	L 49.4 48.11
	L 49.99 48.92
	L 50.14 49.91
	M 49.99 48.92
	L 50.57 49.73
	L 51.46 50.18
	L 52.05 50.99
	M 51.46 50.18
	L 52.36 50.63
	M 50.57 49.73
	L 51.16 50.54
	L 51.32 51.52
	M 51.16 50.54
	L 51.75 51.34
	L 52.64 51.8
	M 51.75 51.34
	L 52.34 52.15
	L 52.49 53.14
	L 52.18 54.09
	M 52.49 53.14
	L 52.65 54.13
	L 53.24 54.94
	L 54.13 55.39
	M 53.24 54.94
	L 53.83 55.75
	M 52.65 54.13
	L 52.81 55.12
	L 52.5 56.07
	M 52.81 55.12
	L 52.96 56.1
	L 53.55 56.91
	M 52.96 56.1
	L 53.12 57.09
	M 52.34 52.15
	L 52.93 52.96
	L 53.08 53.95
	M 52.93 52.96
	L 53.51 53.77
	L 53.67 54.76
	L 54.26 55.57
	M 53.67 54.76
	L 53.83 55.75
	M 53.51 53.77
	L 54.1 54.58
	L 54.26 55.57
	M 54.1 54.58
	L 54.69 55.39
	L 55.58 55.84
	M 54.69 55.39
	L 55.28 56.2
	L 56.17 56.65
	L 56.75 57.46
	M 56.17 56.65
	L 57.06 57.11
	M 55.28 56.2
	L 55.86 57.01
	L 56.02 58
	M 55.86 57.01
	L 56.45 57.82
	L 57.34 58.27
	L 58.34 58.27
	M 57.34 58.27
	L 58.23 58.72
	L 58.82 59.53
	L 58.98 60.52
	M 58.82 59.53
	L 59.41 60.34
	L 60.3 60.8
	M 59.41 60.34
	L 60 61.15
	M 58.23 58.72
	L 59.12 59.18
	L 59.71 59.99
	M 59.12 59.18
	L 60.02 59.63
	L 61.02 59.63
	M 60.02 59.63
	L 60.91 60.09
	M 56.45 57.82
	L 57.04 58.63
	L 57.2 59.61
	M 57.04 58.63
	L 57.63 59.43
	L 58.52 59.89
	L 59.11 60.7
	M 58.52 59.89
	L 59.41 60.34
	M 57.63 59.43
	L 58.22 60.24
	L 58.37 61.23
	M 58.22 60.24
	L 58.8 61.05
	L 59.69 61.51
	M 58.8 61.05
	L 59.39 61.86
	M 49.4 48.11
	L 49.55 49.1
	L 49.25 50.05
	M 49.55 49.1
	L 49.71 50.08
	L 49.4 51.03
	L 48.7 51.74
	M 49.4 51.03
	L 49.09 51.99
	L 49.25 52.97
	M 49.09 51.99
	L 48.78 52.94
	M 49.71 50.08
	L 49.87 51.07
	L 49.56 52.02
	M 49.87 51.07
	L 50.02 52.06
	L 50.61 52.87
	M 50.02 52.06
	L 50.18 53.05
	L 50.77 53.86
	L 50.92 54.84
	M 50.77 53.86
	L 51.36 54.66
	M 50.18 53.05
	L 50.34 54.03
	L 50.03 54.99
	M 50.34 54.03
	L 50.49 55.02
	L 50.18 55.97
	L 49.48 56.68
	M 50.18 55.97
	L 49.88 56.92
	L 49.17 57.63
	L 48.22 57.94
	M 49.17 57.63
	L 48.46 58.34
	M 49.88 56.92
	L 49.57 57.88
	L 49.72 58.86
	M 49.57 57.88
	L 49.26 58.83
	L 49.41 59.81
	L 49.1 60.77
	M 49.41 59.81
	L 49.57 60.8
	L 50.16 61.61
	M 49.57 60.8
	L 49.73 61.79
	M 49.26 58.83
	L 48.95 59.78
	L 48.24 60.48
	M 48.95 59.78
	L 48.64 60.73
	L 48.8 61.72
	M 48.64 60.73
	L 48.33 61.68
	M 50.49 55.02
	L 50.65 56.01
	L 50.34 56.96
	M 50.65 56.01
	L 50.81 57
	L 51.39 57.81
	M 50.81 57
	L 50.96 57.99
	L 50.65 58.94
	L 50.81 59.92
	M 50.65 58.94
	L 50.34 59.89
	M 50.96 57.99
	L 51.12 58.97
	L 50.81 59.92
	M 51.12 58.97
	L 51.28 59.96
	L 51.86 60.77
	M 51.28 59.96
	L 51.43 60.95
	L 52.02 61.76
	L 52.18 62.75
	M 52.02 61.76
	L 52.61 62.57
	L 52.76 63.55
	L 52.45 64.51
	M 52.76 63.55
	L 52.92 64.54
	M 52.61 62.57
	L 53.2 63.38
	L 53.35 64.36
	M 53.2 63.38
	L 53.78 64.18
	L 54.67 64.64
	M 53.78 64.18
	L 54.37 64.99
	L 55.26 65.45
	L 55.85 66.26
	M 55.26 65.45
	L 56.15 65.9
	M 54.37 64.99
	L 54.96 65.8
	L 55.12 66.79
	M 54.96 65.8
	L 55.55 66.61
	L 55.7 67.6
	L 55.39 68.55
	M 55.7 67.6
	L 55.86 68.59
	L 56.45 69.4
	M 55.86 68.59
	L 56.02 69.57
	L 55.71 70.53
	L 55.86 71.51
	M 55.71 70.53
	L 55.4 71.48
	M 56.02 69.57
	L 56.17 70.56
	L 55.86 71.51
	M 56.17 70.56
	L 56.33 71.55
	L 56.92 72.36
	M 56.33 71.55
	L 56.49 72.54
	M 55.55 66.61
	L 56.13 67.42
	L 57.03 67.87
	M 56.13 67.42
	L 56.72 68.23
	L 56.88 69.22
	L 57.47 70.03
	M 56.88 69.22
	L 57.03 70.2
	M 56.72 68.23
	L 57.31 69.04
	L 57.47 70.03
	M 57.31 69.04
	L 57.9 69.85
	L 58.79 70.3
	M 57.9 69.85
	L 58.49 70.66
	L 59.38 71.11
	L 59.96 71.92
	M 59.38 71.11
	L 60.27 71.56
	L 61.27 71.56
	M 60.27 71.56
	L 61.16 72.02
	M 58.49 70.66
	L 59.07 71.47
	L 59.96 71.92
	M 59.07 71.47
	L 59.66 72.27
	L 60.55 72.73
	L 61.14 73.54
	M 60.55 72.73
	L 61.44 73.18
	L 62.44 73.18
	L 63.33 72.73
	M 62.44 73.18
	L 63.44 73.18
	M 61.44 73.18
	L 62.33 73.64
	L 63.33 73.64
	M 62.33 73.64
	L 63.22 74.09
	M 59.66 72.27
	L 60.25 73.08
	L 60.41 74.07
	M 60.25 73.08
	L 60.84 73.89
	L 60.99 74.88
	L 61.58 75.69
	M 60.99 74.88
	L 61.15 75.87
	M 60.84 73.89
	L 61.42 74.7
	L 61.58 75.69
	M 61.42 74.7
	L 62.01 75.51
	L 62.9 75.96
	L 63.9 75.96
	M 62.9 75.96
	L 63.79 76.42
	M 62.01 75.51
	L 62.6 76.32
	L 62.76 77.31
	M 62.6 76.32
	L 63.19 77.13
	L 63.34 78.12
	L 63.93 78.93
	M 63.34 78.12
	L 63.5 79.1
	L 63.19 80.06
	L 63.35 81.04
	M 63.19 80.06
	L 62.88 81.01
	M 63.5 79.1
	L 63.66 80.09
	L 64.24 80.9
	M 63.66 80.09
	L 63.81 81.08
	L 64.4 81.89
	L 64.56 82.88
	M 64.4 81.89
	L 64.99 82.7
	L 65.88 83.15
	M 64.99 82.7
	L 65.58 83.51
	L 65.73 84.49
	L 66.32 85.3
	M 65.73 84.49
	L 65.89 85.48
	M 65.58 83.51
	L 66.16 84.32
	L 66.32 85.3
	M 66.16 84.32
	L 66.75 85.12
	L 67.64 85.58
	L 68.23 86.39
	M 67.64 85.58
	L 68.53 86.03
	L 69.53 86.03
	M 68.53 86.03
	L 69.43 86.49
	M 66.75 85.12
	L 67.34 85.93
	L 67.5 86.92
	M 67.34 85.93
	L 67.93 86.74
	L 68.82 87.2
	M 67.93 86.74
	L 68.52 87.55
	M 63.81 81.08
	L 63.97 82.07
	L 63.66 83.02
	M 63.97 82.07
	L 64.13 83.05
	L 64.71 83.86
	L 64.87 84.85
	M 64.71 83.86
	L 65.3 84.67
	L 66.19 85.13
	M 65.3 84.67
	L 65.89 85.48
	M 64.13 83.05
	L 64.28 84.04
	L 63.97 84.99
	M 64.28 84.04
	L 64.44 85.03
	L 65.03 85.84
	M 64.44 85.03
	L 64.6 86.02
	M 63.19 77.13
	L 63.78 77.94
	L 63.93 78.93
	M 63.78 77.94
	L 64.36 78.75
	L 65.25 79.2
	L 66.25 79.2
	M 65.25 79.2
	L 66.15 79.65
	M 64.36 78.75
	L 64.95 79.56
	L 65.84 80.01
	M 64.95 79.56
	L 65.54 80.36
	L 65.7 81.35
	L 66.28 82.16
	M 65.7 81.35
	L 65.85 82.34
	L 66.44 83.15
	L 66.6 84.14
	M 66.44 83.15
	L 67.03 83.96
	M 65.85 82.34
	L 66.01 83.33
	L 66.6 84.14
	M 66.01 83.33
	L 66.16 84.32
	M 65.54 80.36
	L 66.13 81.17
	L 66.28 82.16
	M 66.13 81.17
	L 66.71 81.98
	L 66.87 82.97
	L 66.56 83.92
	M 66.87 82.97
	L 67.03 83.96
	L 67.62 84.77
	M 67.03 83.96
	L 67.18 84.95
	M 66.71 81.98
	L 67.3 82.79
	L 67.46 83.78
	M 67.3 82.79
	L 67.89 83.6
	L 68.78 84.05
	L 69.37 84.86
	M 68.78 84.05
	L 69.67 84.51
	M 67.89 83.6
	L 68.48 84.41
	L 68.63 85.4
	M 68.48 84.41
	L 69.07 85.22
	L 69.96 85.67
	L 70.54 86.48
	M 69.96 85.67
	L 70.85 86.13
	L 71.44 86.94
	L 71.59 87.92
	M 71.44 86.94
	L 72.02 87.74
	M 70.85 86.13
	L 71.74 86.58
	L 72.33 87.39
	M 71.74 86.58
	L 72.63 87.03
	M 69.07 85.22
	L 69.65 86.03
	L 69.81 87.02
	M 69.65 86.03
	L 70.24 86.84
	L 70.4 87.82
	L 70.09 88.78
	M 70.4 87.82
	L 70.55 88.81
	M 70.24 86.84
	L 70.83 87.65
	L 70.99 88.63
	M 70.83 87.65
	L 71.42 88.45
	L 72.31 88.91
	M 71.42 88.45
	L 72 89.26
	L 72.9 89.72
	L 73.9 89.72
	M 72.9 89.72
	L 73.79 90.17
	M 72 89.26
	L 72.59 90.07
	L 72.75 91.06
	M 72.59 90.07
	L 73.18 90.88
	L 74.07 91.34
	M 73.18 90.88
	L 73.77 91.69
	L 74.66 92.15
	L 75.25 92.95
	M 74.66 92.15
	L 75.55 92.6
	L 76.55 92.6
	L 77.44 93.05
	M 76.55 92.6
	L 77.55 92.6
	L 78.44 92.15
	M 77.55 92.6
	L 78.55 92.6
	M 75.55 92.6
	L 76.44 93.05
	L 77.03 93.86
	M 76.44 93.05
	L 77.33 93.51
	L 78.33 93.51
	M 77.33 93.51
	L 78.22 93.96
	L 78.81 94.77
	L 78.97 95.76
	M 78.81 94.77
	L 79.4 95.58
	L 80.29 96.03
	M 79.4 95.58
	L 79.99 96.39
	L 80.88 96.84
	L 81.88 96.84
	M 80.88 96.84
	L 81.77 97.3
	M 79.99 96.39
	L 80.57 97.2
	L 80.73 98.18
	M 80.57 97.2
	L 81.16 98.01
	L 82.05 98.46
	M 81.16 98.01
	L 81.75 98.82
	M 78.22 93.96
	L 79.11 94.42
	L 79.7 95.22
	M 79.11 94.42
	L 80 94.87
	L 81 94.87
	M 80 94.87
	L 80.9 95.32
	L 81.48 96.13
	L 82.37 96.59
	M 81.48 96.13
	L 82.07 96.94
	M 80.9 95.32
	L 81.79 95.78
	L 82.37 96.59
	M 81.79 95.78
	L 82.68 96.23
	M 73.77 91.69
	L 74.36 92.5
	L 75.25 92.95
	M 74.36 92.5
	L 74.94 93.31
	L 75.83 93.76
	L 76.83 93.76
	M 75.83 93.76
	L 76.73 94.22
	M 74.94 93.31
	L 75.53 94.12
	L 76.42 94.57
	M 75.53 94.12
	L 76.12 94.93
	L 76.28 95.91
	L 75.97 96.87
	M 76.28 95.91
	L 76.43 96.9
	L 77.02 97.71
	L 77.18 98.7
	M 77.02 97.71
	L 77.61 98.52
	M 76.43 96.9
	L 76.59 97.89
	L 76.28 98.84
	M 76.59 97.89
	L 76.74 98.88
	L 77.33 99.69
	M 76.74 98.88
	L 76.9 99.87
	M 76.12 94.93
	L 76.71 95.74
	L 76.86 96.72
	M 76.71 95.74
	L 77.29 96.55
	L 77.45 97.53
	L 77.14 98.48
	M 77.45 97.53
	L 77.61 98.52
	L 78.2 99.33
	M 77.61 98.52
	L 77.76 99.51
	M 77.29 96.55
	L 77.88 97.35
	L 78.04 98.34
	M 77.88 97.35
	L 78.47 98.16
	L 79.36 98.62
	M 78.47 98.16
	L 79.06 98.97
	L 79.95 99.43
	L 80.54 100.2
	M 79.95 99.43
	L 80.84 99.88
	L 81.84 99.88
	M 80.84 99.88
	L 81.73 100.3
	L 82.73 100.3
	L 83.62 99.88
	M 82.73 100.3
	L 83.73 100.3
	M 81.73 100.3
	L 82.62 100.8
	L 83.21 101.6
	M 82.62 100.8
	L 83.51 101.2
	M 79.06 98.97
	L 79.65 99.78
	L 80.54 100.2
	M 79.65 99.78
	L 80.23 100.6
	L 80.39 101.6
	L 80.98 102.4
	M 80.39 101.6
	L 80.55 102.6
	M 80.23 100.6
	L 80.82 101.4
	L 81.71 101.9
	M 80.82 101.4
	L 81.41 102.2
	L 82.3 102.7
	L 83.3 102.7
	M 82.3 102.7
	L 83.19 103.1
	M 81.41 102.2
	L 82 103
	L 82.15 104
	M 82 103
	L 82.58 103.8
	L 83.48 104.3
	M 82.58 103.8
	L 83.17 104.6
	M 51.43 60.95
	L 51.59 61.94
	L 52.18 62.75
	M 51.59 61.94
	L 51.74 62.92
	L 51.44 63.87
	L 50.73 64.58
	M 51.44 63.87
	L 51.13 64.83
	M 51.74 62.92
	L 51.9 63.91
	L 52.49 64.72
	M 51.9 63.91
	L 52.06 64.9
	L 52.65 65.71
	L 52.8 66.7
	M 52.65 65.71
	L 53.23 66.52
	M 52.06 64.9
	L 52.21 65.89
	L 51.91 66.84
	M 52.21 65.89
	L 52.37 66.87
	L 52.96 67.68
	M 52.37 66.87
	L 52.53 67.86
	L 52.22 68.81
	L 52.37 69.8
	M 52.22 68.81
	L 51.91 69.76
	L 51.2 70.47
	L 50.89 71.42
	M 51.2 70.47
	L 50.49 71.18
	M 51.91 69.76
	L 51.6 70.72
	L 50.89 71.42
	M 51.6 70.72
	L 51.29 71.67
	L 51.45 72.65
	L 51.14 73.61
	M 51.45 72.65
	L 51.6 73.64
	M 51.29 71.67
	L 50.98 72.62
	L 50.27 73.32
	M 50.98 72.62
	L 50.67 73.57
	L 50.83 74.56
	M 50.67 73.57
	L 50.36 74.52
	M 52.53 67.86
	L 52.68 68.85
	L 52.37 69.8
	M 52.68 68.85
	L 52.84 69.84
	L 53.43 70.65
	M 52.84 69.84
	L 53 70.83
	L 52.69 71.78
	L 52.84 72.76
	M 52.69 71.78
	L 52.38 72.73
	M 53 70.83
	L 53.15 71.81
	L 52.84 72.76
	M 53.15 71.81
	L 53.31 72.8
	L 53.9 73.61
	L 54.79 74.06
	M 53.9 73.61
	L 54.48 74.42
	M 53.31 72.8
	L 53.47 73.79
	L 53.16 74.74
	M 53.47 73.79
	L 53.62 74.78
	L 54.21 75.59
	L 54.37 76.57
	M 54.21 75.59
	L 54.8 76.39
	L 55.69 76.85
	M 54.8 76.39
	L 55.39 77.2
	L 56.28 77.66
	L 56.86 78.47
	M 56.28 77.66
	L 57.17 78.11
	L 58.17 78.11
	M 57.17 78.11
	L 58.06 78.57
	M 55.39 77.2
	L 55.97 78.01
	L 56.13 79
	M 55.97 78.01
	L 56.56 78.82
	M 53.62 74.78
	L 53.78 75.76
	L 54.37 76.57
	M 53.78 75.76
	L 53.93 76.75
	L 54.52 77.56
	L 54.68 78.55
	M 54.52 77.56
	L 55.11 78.37
	M 53.93 76.75
	L 54.09 77.74
	L 53.78 78.69
	M 54.09 77.74
	L 54.25 78.73
	L 53.94 79.68
	L 54.1 80.67
	M 53.94 79.68
	L 53.63 80.63
	L 53.79 81.62
	L 54.37 82.43
	M 53.79 81.62
	L 53.94 82.6
	M 53.63 80.63
	L 53.32 81.58
	L 53.48 82.57
	M 53.32 81.58
	L 53.01 82.53
	L 52.3 83.24
	L 52 84.19
	M 52.3 83.24
	L 51.6 83.95
	L 51.29 84.9
	L 51.44 85.88
	M 51.29 84.9
	L 50.98 85.85
	M 51.6 83.95
	L 50.89 84.65
	L 50.58 85.6
	M 50.89 84.65
	L 50.18 85.36
	M 53.01 82.53
	L 52.7 83.48
	L 52 84.19
	M 52.7 83.48
	L 52.39 84.43
	L 52.55 85.42
	M 52.39 84.43
	L 52.08 85.38
	L 51.38 86.09
	L 50.43 86.4
	M 51.38 86.09
	L 50.67 86.8
	L 50.36 87.75
	M 50.67 86.8
	L 49.96 87.51
	M 52.08 85.38
	L 51.78 86.34
	L 51.07 87.04
	M 51.78 86.34
	L 51.47 87.29
	L 51.62 88.27
	M 51.47 87.29
	L 51.16 88.24
	M 54.25 78.73
	L 54.4 79.71
	L 54.1 80.67
	M 54.4 79.71
	L 54.56 80.7
	L 54.25 81.65
	L 53.54 82.36
	M 54.25 81.65
	L 53.94 82.6
	L 54.1 83.59
	M 53.94 82.6
	L 53.63 83.56
	M 54.56 80.7
	L 54.72 81.69
	L 54.41 82.64
	M 54.72 81.69
	L 54.87 82.68
	L 55.46 83.49
	M 54.87 82.68
	L 55.03 83.67
	L 54.72 84.62
	L 54.88 85.6
	M 54.72 84.62
	L 54.41 85.57
	L 53.7 86.27
	L 53.4 87.23
	M 53.7 86.27
	L 53 86.98
	M 54.41 85.57
	L 54.1 86.52
	L 53.4 87.23
	M 54.1 86.52
	L 53.79 87.47
	L 53.95 88.46
	M 53.79 87.47
	L 53.48 88.42
	M 55.03 83.67
	L 55.19 84.65
	L 54.88 85.6
	M 55.19 84.65
	L 55.34 85.64
	L 55.03 86.59
	L 55.19 87.58
	M 55.03 86.59
	L 54.72 87.54
	M 55.34 85.64
	L 55.5 86.63
	L 55.19 87.58
	M 55.5 86.63
	L 55.66 87.62
	L 56.24 88.43
	M 55.66 87.62
	L 55.81 88.6
	L 56.4 89.41
	L 57.29 89.87
	M 56.4 89.41
	L 56.99 90.22
	M 55.81 88.6
	L 55.97 89.59
	L 56.56 90.4
	M 55.97 89.59
	L 56.13 90.58
	L 56.71 91.39
	L 56.87 92.38
	M 56.71 91.39
	L 57.3 92.2
	L 57.46 93.18
	L 57.15 94.14
	M 57.46 93.18
	L 57.61 94.17
	L 58.2 94.98
	M 57.61 94.17
	L 57.77 95.16
	M 57.3 92.2
	L 57.89 93.01
	L 58.78 93.46
	M 57.89 93.01
	L 58.48 93.82
	L 58.63 94.8
	L 59.22 95.61
	M 58.63 94.8
	L 58.79 95.79
	L 58.48 96.74
	L 58.64 97.73
	M 58.48 96.74
	L 58.17 97.69
	M 58.79 95.79
	L 58.95 96.78
	L 58.64 97.73
	M 58.95 96.78
	L 59.1 97.77
	L 59.69 98.57
	M 59.1 97.77
	L 59.26 98.75
	M 58.48 93.82
	L 59.06 94.62
	L 59.95 95.08
	M 59.06 94.62
	L 59.65 95.43
	L 59.81 96.42
	L 60.4 97.23
	M 59.81 96.42
	L 59.96 97.41
	M 59.65 95.43
	L 60.24 96.24
	L 61.13 96.7
	M 60.24 96.24
	L 60.83 97.05
	M 56.13 90.58
	L 56.28 91.57
	L 55.97 92.52
	M 56.28 91.57
	L 56.44 92.55
	L 57.03 93.36
	M 56.44 92.55
	L 56.59 93.54
	L 57.18 94.35
	L 58.07 94.81
	M 57.18 94.35
	L 57.77 95.16
	M 56.59 93.54
	L 56.75 94.53
	L 56.44 95.48
	M 56.75 94.53
	L 56.91 95.52
	L 57.49 96.33
	M 56.91 95.52
	L 57.06 96.51
	L 56.75 97.46
	L 56.91 98.44
	M 56.75 97.46
	L 56.45 98.41
	L 55.74 99.11
	L 54.79 99.42
	M 55.74 99.11
	L 55.03 99.82
	M 56.45 98.41
	L 56.14 99.36
	L 55.43 100.1
	M 56.14 99.36
	L 55.83 100.3
	L 55.98 101.3
	M 55.83 100.3
	L 55.52 101.3
	L 55.67 102.2
	L 55.37 103.2
	M 55.67 102.2
	L 55.83 103.2
	M 55.52 101.3
	L 55.21 102.2
	L 54.5 102.9
	M 55.21 102.2
	L 54.9 103.2
	L 55.06 104.2
	M 54.9 103.2
	L 54.59 104.1
	M 57.06 96.51
	L 57.22 97.49
	L 56.91 98.44
	M 57.22 97.49
	L 57.38 98.48
	L 57.96 99.29
	L 58.86 99.74
	M 57.96 99.29
	L 58.55 100.1
	M 57.38 98.48
	L 57.53 99.47
	L 58.12 100.3
	M 57.53 99.47
	L 57.69 100.5
	L 58.28 101.3
	L 58.43 102.3
	M 58.28 101.3
	L 58.86 102.1
	L 59.76 102.5
	M 58.86 102.1
	L 59.45 102.9
	L 59.61 103.9
	L 59.3 104.8
	M 59.61 103.9
	L 59.77 104.9
	L 60.35 105.7
	M 59.77 104.9
	L 59.92 105.8
	M 59.45 102.9
	L 60.04 103.7
	L 60.93 104.1
	M 60.04 103.7
	L 60.63 104.5
	L 61.52 105
	L 62.52 105
	M 61.52 105
	L 62.41 105.4
	M 60.63 104.5
	L 61.22 105.3
	L 61.37 106.3
	M 61.22 105.3
	L 61.8 106.1
	L 62.69 106.6
	M 61.8 106.1
	L 62.39 106.9
	M 57.69 100.5
	L 57.85 101.4
	L 57.54 102.4
	M 57.85 101.4
	L 58 102.4
	L 57.69 103.4
	L 57.85 104.4
	M 57.69 103.4
	L 57.38 104.3
	M 58 102.4
	L 58.16 103.4
	L 57.85 104.4
	M 58.16 103.4
	L 58.32 104.4
	L 58.9 105.2
	M 58.32 104.4
	L 58.47 105.4
	M 40.95 -5.227
	L 41.94 -5.383
	L 42.93 -5.54
	L 43.91 -5.696
	L 44.9 -5.852
	L 45.85 -6.161
	L 46.8 -6.47
	L 47.75 -6.779
	L 48.71 -7.089
	L 49.6 -7.543
	L 50.49 -7.996
	L 51.38 -8.45
	L 52.27 -8.904
	L 53.22 -9.213
	L 54.17 -9.523
	L 55.12 -9.832
	L 56.07 -10.14
	L 56.97 -10.59
	L 57.86 -11.05
	L 58.75 -11.5
	L 59.64 -11.96
	L 60.59 -12.27
	L 61.54 -12.57
	L 62.49 -12.88
	L 63.44 -13.19
	L 64.43 -13.35
	L 65.42 -13.51
	L 66.41 -13.66
	L 67.39 -13.82
	L 68.39 -13.82
	L 69.39 -13.82
	L 70.39 -13.82
	L 71.39 -13.82
	L 72.38 -13.66
	L 73.37 -13.51
	L 74.36 -13.35
	L 75.34 -13.19
	L 76.34 -13.19
	L 77.34 -13.19
	L 78.34 -13.19
	L 79.34 -13.19
	L 80.33 -13.04
	L 81.32 -12.88
	L 82.31 -12.72
	L 83.29 -12.57
	L 84.29 -12.57
	L 85.29 -12.57
	L 86.29 -12.57
	L 87.29 -12.57
	L 88.28 -12.41
	L 89.27 -12.25
	L 90.26 -12.1
	L 91.25 -11.94
	L 91.09 -10.95
	L 90.5 -10.14
	M 91.09 -10.95
	L 90.93 -9.966
	L 91.24 -9.015
	M 90.93 -9.966
	L 90.78 -8.978
	L 90.19 -8.169
	L 90.03 -7.181
	M 90.19 -8.169
	L 89.6 -7.36
	M 90.78 -8.978
	L 90.62 -7.99
	L 90.93 -7.039
	M 90.62 -7.99
	L 90.46 -7.003
	L 90.77 -6.052
	L 90.62 -5.064
	M 90.77 -6.052
	L 91.08 -5.101
	M 90.46 -7.003
	L 90.31 -6.015
	L 90.62 -5.064
	M 90.31 -6.015
	L 90.15 -5.027
	L 90.46 -4.076
	L 91.17 -3.369
	M 90.46 -4.076
	L 90.77 -3.125
	L 90.61 -2.137
	L 90.02 -1.328
	M 90.61 -2.137
	L 90.46 -1.15
	L 90.76 -0.1987
	M 90.46 -1.15
	L 90.3 -0.1621
	M 90.77 -3.125
	L 91.08 -2.174
	L 90.92 -1.186
	M 91.08 -2.174
	L 91.39 -1.223
	L 92.09 -0.5159
	L 92.4 0.4351
	M 92.09 -0.5159
	L 92.8 0.1912
	M 91.39 -1.223
	L 91.7 -0.272
	L 91.54 0.7157
	M 91.7 -0.272
	L 92 0.6791
	L 92.71 1.386
	M 92 0.6791
	L 92.31 1.63
	M 90.15 -5.027
	L 89.99 -4.04
	L 90.3 -3.089
	M 89.99 -4.04
	L 89.84 -3.052
	L 89.25 -2.243
	L 89.09 -1.255
	M 89.25 -2.243
	L 88.66 -1.434
	M 89.84 -3.052
	L 89.68 -2.064
	L 89.09 -1.255
	M 89.68 -2.064
	L 89.52 -1.077
	L 89.83 -0.1255
	L 89.68 0.8622
	M 89.83 -0.1255
	L 90.14 0.8256
	L 89.99 1.813
	L 89.4 2.622
	M 89.99 1.813
	L 89.83 2.801
	M 90.14 0.8256
	L 90.45 1.777
	L 90.3 2.764
	M 90.45 1.777
	L 90.76 2.728
	L 90.6 3.715
	L 90.91 4.666
	M 90.6 3.715
	L 90.45 4.703
	L 89.86 5.512
	L 89.7 6.5
	M 89.86 5.512
	L 89.27 6.321
	M 90.45 4.703
	L 90.29 5.691
	L 90.6 6.642
	M 90.29 5.691
	L 90.13 6.678
	L 90.44 7.63
	L 91.15 8.337
	M 90.44 7.63
	L 90.75 8.581
	M 90.13 6.678
	L 89.98 7.666
	L 90.29 8.617
	M 89.98 7.666
	L 89.82 8.654
	M 90.76 2.728
	L 91.07 3.679
	L 90.91 4.666
	M 91.07 3.679
	L 91.38 4.63
	L 92.09 5.337
	M 91.38 4.63
	L 91.69 5.581
	L 91.53 6.569
	L 90.94 7.378
	M 91.53 6.569
	L 91.37 7.556
	L 91.68 8.507
	M 91.37 7.556
	L 91.22 8.544
	M 91.69 5.581
	L 92 6.532
	L 91.84 7.52
	M 92 6.532
	L 92.31 7.483
	L 93.01 8.19
	L 93.32 9.141
	M 93.01 8.19
	L 93.72 8.897
	L 94.67 9.206
	L 95.38 9.913
	M 94.67 9.206
	L 95.62 9.515
	L 96.61 9.359
	M 95.62 9.515
	L 96.57 9.824
	M 93.72 8.897
	L 94.43 9.604
	L 94.74 10.56
	M 94.43 9.604
	L 95.13 10.31
	L 96.09 10.62
	M 95.13 10.31
	L 95.84 11.02
	M 92.31 7.483
	L 92.61 8.434
	L 92.46 9.422
	M 92.61 8.434
	L 92.92 9.385
	L 93.63 10.09
	M 92.92 9.385
	L 93.23 10.34
	L 93.08 11.32
	L 92.49 12.13
	M 93.08 11.32
	L 92.92 12.31
	M 93.23 10.34
	L 93.54 11.29
	L 93.39 12.27
	M 93.54 11.29
	L 93.85 12.24
	M 89.52 -1.077
	L 89.37 -0.08883
	L 89.68 0.8622
	M 89.37 -0.08883
	L 89.21 0.8989
	L 89.52 1.85
	L 90.23 2.557
	M 89.52 1.85
	L 89.83 2.801
	M 89.21 0.8989
	L 89.06 1.887
	L 88.47 2.696
	M 89.06 1.887
	L 88.9 2.874
	L 89.21 3.825
	L 89.91 4.532
	M 89.21 3.825
	L 89.52 4.776
	L 89.36 5.764
	L 89.67 6.715
	M 89.36 5.764
	L 89.2 6.752
	M 89.52 4.776
	L 89.83 5.727
	L 90.53 6.435
	M 89.83 5.727
	L 90.13 6.678
	M 88.9 2.874
	L 88.74 3.862
	L 88.15 4.671
	M 88.74 3.862
	L 88.59 4.85
	L 88 5.659
	L 87.11 6.113
	M 88 5.659
	L 87.41 6.468
	M 88.59 4.85
	L 88.43 5.837
	L 87.84 6.646
	M 88.43 5.837
	L 88.27 6.825
	L 88.58 7.776
	L 88.43 8.764
	M 88.58 7.776
	L 88.89 8.727
	M 88.27 6.825
	L 88.12 7.813
	L 88.43 8.764
	M 88.12 7.813
	L 87.96 8.8
	L 87.37 9.609
	L 86.48 10.06
	M 87.37 9.609
	L 86.78 10.42
	L 86.63 11.41
	M 86.78 10.42
	L 86.2 11.23
	L 85.31 11.68
	L 84.72 12.49
	M 85.31 11.68
	L 84.41 12.14
	M 86.2 11.23
	L 85.61 12.04
	L 85.45 13.02
	M 85.61 12.04
	L 85.02 12.85
	L 84.13 13.3
	L 83.13 13.3
	M 84.13 13.3
	L 83.24 13.75
	L 82.24 13.75
	L 81.35 14.21
	M 82.24 13.75
	L 81.24 13.75
	M 83.24 13.75
	L 82.35 14.21
	L 81.35 14.21
	M 82.35 14.21
	L 81.46 14.66
	L 80.87 15.47
	L 79.98 15.92
	M 80.87 15.47
	L 80.28 16.28
	L 80.13 17.27
	M 80.28 16.28
	L 79.69 17.09
	M 81.46 14.66
	L 80.57 15.12
	L 79.98 15.92
	M 80.57 15.12
	L 79.68 15.57
	M 85.02 12.85
	L 84.43 13.65
	L 83.54 14.11
	M 84.43 13.65
	L 83.85 14.46
	L 83.69 15.45
	M 83.85 14.46
	L 83.26 15.27
	L 83.1 16.26
	L 83.41 17.21
	M 83.1 16.26
	L 82.95 17.25
	M 83.26 15.27
	L 82.67 16.08
	L 81.78 16.54
	M 82.67 16.08
	L 82.08 16.89
	L 81.93 17.88
	M 82.08 16.89
	L 81.49 17.7
	L 80.6 18.15
	L 80.02 18.96
	M 80.6 18.15
	L 79.71 18.61
	L 78.71 18.61
	L 77.82 18.15
	M 78.71 18.61
	L 77.71 18.61
	M 79.71 18.61
	L 78.82 19.06
	L 77.82 19.06
	M 78.82 19.06
	L 77.93 19.52
	L 77.34 20.32
	M 77.93 19.52
	L 77.04 19.97
	L 76.45 20.78
	L 75.56 21.23
	M 76.45 20.78
	L 75.86 21.59
	L 75.71 22.58
	M 75.86 21.59
	L 75.28 22.4
	L 74.39 22.85
	L 73.39 22.85
	M 74.39 22.85
	L 73.49 23.3
	L 72.91 24.11
	M 73.49 23.3
	L 72.6 23.76
	M 75.28 22.4
	L 74.69 23.21
	L 74.53 24.19
	M 74.69 23.21
	L 74.1 24.01
	M 77.04 19.97
	L 76.15 20.42
	L 75.15 20.42
	M 76.15 20.42
	L 75.26 20.88
	L 74.26 20.88
	L 73.37 20.42
	M 74.26 20.88
	L 73.26 20.88
	M 75.26 20.88
	L 74.37 21.33
	L 73.37 21.33
	M 74.37 21.33
	L 73.48 21.79
	L 72.89 22.59
	M 73.48 21.79
	L 72.58 22.24
	M 81.49 17.7
	L 80.91 18.51
	L 80.75 19.5
	M 80.91 18.51
	L 80.32 19.32
	L 80.16 20.31
	L 80.47 21.26
	M 80.16 20.31
	L 80.01 21.29
	M 80.32 19.32
	L 79.73 20.13
	L 78.84 20.58
	M 79.73 20.13
	L 79.14 20.94
	L 78.99 21.92
	M 79.14 20.94
	L 78.56 21.74
	L 77.66 22.2
	L 76.66 22.2
	M 77.66 22.2
	L 76.77 22.65
	L 76.19 23.46
	L 76.03 24.45
	M 76.19 23.46
	L 75.6 24.27
	M 76.77 22.65
	L 75.88 23.11
	L 75.29 23.92
	M 75.88 23.11
	L 74.99 23.56
	M 78.56 21.74
	L 77.97 22.55
	L 77.08 23.01
	M 77.97 22.55
	L 77.38 23.36
	L 77.22 24.35
	L 77.53 25.3
	M 77.22 24.35
	L 77.07 25.34
	M 77.38 23.36
	L 76.79 24.17
	L 76.64 25.16
	M 76.79 24.17
	L 76.2 24.98
	L 76.05 25.97
	L 75.46 26.78
	M 76.05 25.97
	L 75.89 26.96
	L 76.2 27.91
	L 76.91 28.61
	M 76.2 27.91
	L 76.51 28.86
	M 75.89 26.96
	L 75.74 27.94
	L 75.15 28.75
	M 75.74 27.94
	L 75.58 28.93
	L 75.89 29.88
	M 75.58 28.93
	L 75.42 29.92
	M 76.2 24.98
	L 75.62 25.79
	L 74.73 26.24
	M 75.62 25.79
	L 75.03 26.6
	L 74.14 27.05
	L 73.55 27.86
	M 74.14 27.05
	L 73.25 27.51
	M 75.03 26.6
	L 74.44 27.41
	L 74.28 28.4
	M 74.44 27.41
	L 73.85 28.22
	L 73.7 29.2
	L 74.01 30.16
	M 73.7 29.2
	L 73.54 30.19
	L 73.85 31.14
	L 74.56 31.85
	M 73.85 31.14
	L 74.16 32.09
	M 73.54 30.19
	L 73.38 31.18
	L 72.8 31.99
	M 73.38 31.18
	L 73.23 32.17
	L 73.54 33.12
	M 73.23 32.17
	L 73.07 33.16
	L 73.38 34.11
	L 73.22 35.09
	M 73.38 34.11
	L 73.69 35.06
	L 74.4 35.76
	L 74.71 36.72
	M 74.4 35.76
	L 75.1 36.47
	L 76.05 36.78
	M 75.1 36.47
	L 75.81 37.18
	M 73.69 35.06
	L 74 36.01
	L 74.71 36.72
	M 74 36.01
	L 74.31 36.96
	M 73.07 33.16
	L 72.91 34.14
	L 72.33 34.95
	M 72.91 34.14
	L 72.76 35.13
	L 73.07 36.08
	M 72.76 35.13
	L 72.6 36.12
	L 72.01 36.93
	L 71.12 37.38
	M 72.01 36.93
	L 71.43 37.74
	L 71.27 38.72
	M 71.43 37.74
	L 70.84 38.55
	M 72.6 36.12
	L 72.45 37.11
	L 71.86 37.91
	M 72.45 37.11
	L 72.29 38.09
	L 72.6 39.04
	L 73.31 39.75
	M 72.6 39.04
	L 72.91 40
	M 72.29 38.09
	L 72.13 39.08
	L 72.44 40.03
	M 72.13 39.08
	L 71.98 40.07
	M 73.85 28.22
	L 73.27 29.03
	L 72.37 29.48
	M 73.27 29.03
	L 72.68 29.83
	L 72.52 30.82
	M 72.68 29.83
	L 72.09 30.64
	L 71.2 31.1
	L 70.2 31.1
	M 71.2 31.1
	L 70.31 31.55
	M 72.09 30.64
	L 71.5 31.45
	L 70.61 31.91
	M 71.5 31.45
	L 70.91 32.26
	L 70.76 33.25
	L 71.07 34.2
	M 70.76 33.25
	L 70.6 34.24
	L 70.91 35.19
	L 70.75 36.18
	M 70.91 35.19
	L 71.22 36.14
	M 70.6 34.24
	L 70.45 35.22
	L 69.86 36.03
	M 70.45 35.22
	L 70.29 36.21
	L 70.6 37.16
	M 70.29 36.21
	L 70.13 37.2
	M 70.91 32.26
	L 70.33 33.07
	L 69.44 33.52
	M 70.33 33.07
	L 69.74 33.88
	L 69.58 34.87
	M 69.74 33.88
	L 69.15 34.69
	L 68.99 35.68
	L 68.41 36.49
	M 68.99 35.68
	L 68.84 36.66
	L 69.15 37.62
	M 68.84 36.66
	L 68.68 37.65
	M 69.15 34.69
	L 68.56 35.5
	L 67.67 35.95
	M 68.56 35.5
	L 67.98 36.31
	L 67.82 37.29
	M 67.98 36.31
	L 67.39 37.12
	M 87.96 8.8
	L 87.8 9.788
	L 88.11 10.74
	M 87.8 9.788
	L 87.65 10.78
	L 87.96 11.73
	L 87.8 12.71
	M 87.96 11.73
	L 88.27 12.68
	M 87.65 10.78
	L 87.49 11.76
	L 87.8 12.71
	M 87.49 11.76
	L 87.33 12.75
	L 86.75 13.56
	L 85.86 14.01
	M 86.75 13.56
	L 86.16 14.37
	L 85.27 14.82
	L 84.68 15.63
	M 85.27 14.82
	L 84.38 15.28
	M 86.16 14.37
	L 85.57 15.18
	L 85.41 16.17
	M 85.57 15.18
	L 84.98 15.99
	M 87.33 12.75
	L 87.18 13.74
	L 86.59 14.55
	M 87.18 13.74
	L 87.02 14.73
	L 87.33 15.68
	M 87.02 14.73
	L 86.87 15.71
	L 86.28 16.52
	L 85.39 16.98
	M 86.28 16.52
	L 85.69 17.33
	M 86.87 15.71
	L 86.71 16.7
	L 86.12 17.51
	M 86.71 16.7
	L 86.55 17.69
	L 86.86 18.64
	M 86.55 17.69
	L 86.4 18.68
	L 86.7 19.63
	L 87.41 20.34
	M 86.7 19.63
	L 87.01 20.58
	M 86.4 18.68
	L 86.24 19.66
	L 85.65 20.47
	M 86.24 19.66
	L 86.08 20.65
	L 85.5 21.46
	L 84.6 21.92
	M 85.5 21.46
	L 84.91 22.27
	L 84.75 23.26
	L 85.06 24.21
	M 84.75 23.26
	L 84.59 24.25
	M 84.91 22.27
	L 84.32 23.08
	L 83.43 23.53
	M 84.32 23.08
	L 83.73 23.89
	L 83.58 24.88
	M 83.73 23.89
	L 83.14 24.7
	L 82.25 25.15
	L 81.67 25.96
	M 82.25 25.15
	L 81.36 25.61
	L 80.36 25.61
	L 79.47 25.15
	M 80.36 25.61
	L 79.36 25.61
	M 81.36 25.61
	L 80.47 26.06
	L 79.47 26.06
	M 80.47 26.06
	L 79.58 26.51
	L 78.99 27.32
	L 78.1 27.78
	M 78.99 27.32
	L 78.4 28.13
	M 79.58 26.51
	L 78.69 26.97
	L 77.69 26.97
	M 78.69 26.97
	L 77.8 27.42
	L 77.21 28.23
	M 77.8 27.42
	L 76.91 27.88
	M 83.14 24.7
	L 82.56 25.51
	L 81.67 25.96
	M 82.56 25.51
	L 81.97 26.32
	L 81.08 26.77
	L 80.08 26.77
	M 81.08 26.77
	L 80.19 27.22
	L 79.6 28.03
	M 80.19 27.22
	L 79.3 27.68
	M 81.97 26.32
	L 81.38 27.12
	L 81.22 28.11
	M 81.38 27.12
	L 80.79 27.93
	L 80.64 28.92
	L 80.05 29.73
	M 80.64 28.92
	L 80.48 29.91
	M 80.79 27.93
	L 80.21 28.74
	L 79.31 29.2
	M 80.21 28.74
	L 79.62 29.55
	L 79.46 30.54
	M 79.62 29.55
	L 79.03 30.36
	L 78.87 31.35
	L 78.29 32.16
	M 78.87 31.35
	L 78.72 32.34
	L 79.03 33.29
	L 79.73 33.99
	M 79.03 33.29
	L 79.33 34.24
	M 78.72 32.34
	L 78.56 33.32
	L 77.97 34.13
	M 78.56 33.32
	L 78.4 34.31
	M 79.03 30.36
	L 78.44 31.17
	L 77.55 31.62
	M 78.44 31.17
	L 77.85 31.98
	L 77.7 32.97
	M 77.85 31.98
	L 77.27 32.79
	L 77.11 33.78
	L 76.52 34.58
	M 77.11 33.78
	L 76.95 34.76
	M 77.27 32.79
	L 76.68 33.6
	L 75.79 34.05
	M 76.68 33.6
	L 76.09 34.41
	M 86.08 20.65
	L 85.93 21.64
	L 86.24 22.59
	M 85.93 21.64
	L 85.77 22.63
	L 86.08 23.58
	L 85.92 24.57
	M 86.08 23.58
	L 86.39 24.53
	L 87.1 25.24
	M 86.39 24.53
	L 86.7 25.48
	M 85.77 22.63
	L 85.61 23.62
	L 85.03 24.42
	M 85.61 23.62
	L 85.46 24.6
	L 85.77 25.55
	L 86.47 26.26
	M 85.77 25.55
	L 86.08 26.51
	L 85.92 27.49
	L 85.33 28.3
	M 85.92 27.49
	L 85.76 28.48
	M 86.08 26.51
	L 86.38 27.46
	L 87.09 28.16
	M 86.38 27.46
	L 86.69 28.41
	M 85.46 24.6
	L 85.3 25.59
	L 85.61 26.54
	M 85.3 25.59
	L 85.14 26.58
	L 84.56 27.39
	L 83.67 27.84
	M 84.56 27.39
	L 83.97 28.2
	L 83.81 29.18
	M 83.97 28.2
	L 83.38 29.01
	M 85.14 26.58
	L 84.99 27.57
	L 85.3 28.52
	M 84.99 27.57
	L 84.83 28.55
	L 85.14 29.51
	L 84.98 30.49
	M 85.14 29.51
	L 85.45 30.46
	L 86.16 31.16
	M 85.45 30.46
	L 85.76 31.41
	M 84.83 28.55
	L 84.68 29.54
	L 84.09 30.35
	M 84.68 29.54
	L 84.52 30.53
	L 84.83 31.48
	L 84.67 32.47
	M 84.83 31.48
	L 85.14 32.43
	L 85.84 33.14
	M 85.14 32.43
	L 85.45 33.38
	L 85.29 34.37
	L 85.6 35.32
	M 85.29 34.37
	L 85.13 35.36
	M 85.45 33.38
	L 85.75 34.33
	L 85.6 35.32
	M 85.75 34.33
	L 86.06 35.28
	L 86.77 35.99
	M 86.06 35.28
	L 86.37 36.24
	L 87.08 36.94
	L 87.39 37.89
	M 87.08 36.94
	L 87.79 37.65
	L 88.74 37.96
	M 87.79 37.65
	L 88.49 38.36
	M 86.37 36.24
	L 86.68 37.19
	L 86.53 38.17
	M 86.68 37.19
	L 86.99 38.14
	L 87.7 38.85
	M 86.99 38.14
	L 87.3 39.09
	L 88.01 39.8
	L 88.96 40.11
	M 88.01 39.8
	L 88.71 40.5
	L 89.02 41.45
	L 88.87 42.44
	M 89.02 41.45
	L 89.33 42.41
	M 88.71 40.5
	L 89.42 41.21
	L 89.73 42.16
	M 89.42 41.21
	L 90.13 41.92
	L 91.08 42.23
	L 91.79 42.93
	M 91.08 42.23
	L 92.03 42.54
	L 93.02 42.38
	M 92.03 42.54
	L 92.98 42.84
	M 90.13 41.92
	L 90.84 42.62
	L 91.79 42.93
	M 90.84 42.62
	L 91.54 43.33
	M 87.3 39.09
	L 87.61 40.04
	L 88.32 40.75
	M 87.61 40.04
	L 87.92 40.99
	L 87.76 41.98
	L 87.17 42.79
	M 87.76 41.98
	L 87.61 42.97
	L 87.91 43.92
	M 87.61 42.97
	L 87.45 43.95
	M 87.92 40.99
	L 88.23 41.94
	L 88.93 42.65
	M 88.23 41.94
	L 88.54 42.89
	L 88.38 43.88
	L 88.69 44.83
	M 88.38 43.88
	L 88.22 44.87
	L 87.64 45.68
	L 87.48 46.67
	M 87.64 45.68
	L 87.05 46.49
	M 88.22 44.87
	L 88.07 45.86
	L 87.48 46.67
	M 88.07 45.86
	L 87.91 46.84
	L 88.22 47.8
	M 87.91 46.84
	L 87.75 47.83
	L 87.17 48.64
	L 86.27 49.09
	M 87.17 48.64
	L 86.58 49.45
	L 85.69 49.9
	L 85.1 50.71
	M 85.69 49.9
	L 84.8 50.36
	M 86.58 49.45
	L 85.99 50.26
	L 85.1 50.71
	M 85.99 50.26
	L 85.4 51.07
	L 85.25 52.06
	M 85.4 51.07
	L 84.81 51.88
	M 87.75 47.83
	L 87.6 48.82
	L 87.01 49.63
	M 87.6 48.82
	L 87.44 49.81
	L 87.75 50.76
	L 87.59 51.75
	M 87.75 50.76
	L 88.06 51.71
	M 87.44 49.81
	L 87.28 50.79
	L 86.7 51.6
	M 87.28 50.79
	L 87.13 51.78
	L 87.44 52.73
	L 88.14 53.44
	M 87.44 52.73
	L 87.75 53.68
	L 88.45 54.39
	L 88.76 55.34
	M 88.45 54.39
	L 89.16 55.1
	L 90.11 55.41
	M 89.16 55.1
	L 89.87 55.81
	M 87.75 53.68
	L 88.06 54.64
	L 87.9 55.62
	M 88.06 54.64
	L 88.36 55.59
	L 89.07 56.29
	M 88.36 55.59
	L 88.67 56.54
	M 87.13 51.78
	L 86.97 52.77
	L 86.38 53.58
	M 86.97 52.77
	L 86.82 53.76
	L 87.12 54.71
	L 86.97 55.7
	M 87.12 54.71
	L 87.43 55.66
	M 86.82 53.76
	L 86.66 54.75
	L 86.97 55.7
	M 86.66 54.75
	L 86.5 55.73
	M 88.54 42.89
	L 88.84 43.84
	L 88.69 44.83
	M 88.84 43.84
	L 89.15 44.8
	L 89 45.78
	L 89.31 46.73
	M 89 45.78
	L 88.84 46.77
	M 89.15 44.8
	L 89.46 45.75
	L 90.17 46.45
	M 89.46 45.75
	L 89.77 46.7
	L 90.48 47.4
	L 90.79 48.36
	M 90.48 47.4
	L 91.19 48.11
	L 92.14 48.42
	M 91.19 48.11
	L 91.89 48.82
	M 89.77 46.7
	L 90.08 47.65
	L 89.92 48.64
	M 90.08 47.65
	L 90.39 48.6
	L 91.1 49.31
	M 90.39 48.6
	L 90.7 49.55
	L 91.41 50.26
	L 92.36 50.57
	M 91.41 50.26
	L 92.11 50.96
	L 92.42 51.92
	L 92.27 52.9
	M 92.42 51.92
	L 92.73 52.87
	L 93.44 53.57
	M 92.73 52.87
	L 93.04 53.82
	M 92.11 50.96
	L 92.82 51.67
	L 93.13 52.62
	M 92.82 51.67
	L 93.53 52.38
	M 90.7 49.55
	L 91.01 50.5
	L 90.85 51.49
	M 91.01 50.5
	L 91.32 51.45
	L 92.02 52.16
	L 92.98 52.47
	M 92.02 52.16
	L 92.73 52.87
	M 91.32 51.45
	L 91.63 52.4
	L 92.33 53.11
	M 91.63 52.4
	L 91.94 53.35
	M 84.52 30.53
	L 84.36 31.52
	L 83.77 32.33
	M 84.36 31.52
	L 84.21 32.5
	L 84.51 33.46
	M 84.21 32.5
	L 84.05 33.49
	L 83.46 34.3
	L 82.57 34.76
	M 83.46 34.3
	L 82.87 35.11
	M 84.05 33.49
	L 83.89 34.48
	L 84.2 35.43
	M 83.89 34.48
	L 83.74 35.47
	L 83.15 36.28
	L 82.26 36.73
	M 83.15 36.28
	L 82.56 37.09
	L 82.4 38.07
	M 82.56 37.09
	L 81.97 37.89
	L 81.08 38.35
	L 80.08 38.35
	M 81.08 38.35
	L 80.19 38.8
	L 79.6 39.61
	M 80.19 38.8
	L 79.3 39.26
	M 81.97 37.89
	L 81.39 38.7
	L 80.49 39.16
	M 81.39 38.7
	L 80.8 39.51
	M 83.74 35.47
	L 83.58 36.46
	L 82.99 37.26
	M 83.58 36.46
	L 83.42 37.44
	L 82.84 38.25
	L 81.94 38.71
	M 82.84 38.25
	L 82.25 39.06
	M 83.42 37.44
	L 83.27 38.43
	L 82.68 39.24
	M 83.27 38.43
	L 83.11 39.42
	L 82.52 40.23
	L 82.37 41.22
	M 82.52 40.23
	L 81.94 41.04
	L 81.04 41.49
	L 80.04 41.49
	M 81.04 41.49
	L 80.15 41.94
	L 79.57 42.75
	M 80.15 41.94
	L 79.26 42.4
	M 81.94 41.04
	L 81.35 41.85
	L 80.46 42.3
	M 81.35 41.85
	L 80.76 42.65
	L 80.6 43.64
	L 80.02 44.45
	M 80.6 43.64
	L 80.45 44.63
	L 80.76 45.58
	M 80.45 44.63
	L 80.29 45.62
	L 79.7 46.43
	L 78.81 46.88
	M 79.7 46.43
	L 79.11 47.24
	L 78.96 48.22
	M 79.11 47.24
	L 78.53 48.04
	M 80.29 45.62
	L 80.13 46.61
	L 79.55 47.41
	M 80.13 46.61
	L 79.98 47.59
	L 80.29 48.54
	M 79.98 47.59
	L 79.82 48.58
	M 80.76 42.65
	L 80.17 43.46
	L 80.02 44.45
	M 80.17 43.46
	L 79.58 44.27
	L 79.43 45.26
	L 78.84 46.07
	M 79.43 45.26
	L 79.27 46.25
	M 79.58 44.27
	L 79 45.08
	L 78.11 45.54
	M 79 45.08
	L 78.41 45.89
	L 78.25 46.88
	M 78.41 45.89
	L 77.82 46.7
	M 83.11 39.42
	L 82.95 40.41
	L 82.37 41.22
	M 82.95 40.41
	L 82.8 41.39
	L 83.11 42.35
	L 83.81 43.05
	M 83.11 42.35
	L 83.42 43.3
	M 82.8 41.39
	L 82.64 42.38
	L 82.05 43.19
	M 82.64 42.38
	L 82.49 43.37
	L 81.9 44.18
	L 81.74 45.17
	M 81.9 44.18
	L 81.31 44.99
	L 80.42 45.44
	L 79.42 45.44
	M 80.42 45.44
	L 79.53 45.9
	L 78.94 46.7
	M 79.53 45.9
	L 78.64 46.35
	M 81.31 44.99
	L 80.72 45.8
	L 79.83 46.25
	M 80.72 45.8
	L 80.13 46.61
	M 82.49 43.37
	L 82.33 44.36
	L 81.74 45.17
	M 82.33 44.36
	L 82.17 45.34
	L 82.48 46.3
	M 82.17 45.34
	L 82.02 46.33
	L 82.32 47.28
	L 83.03 47.99
	M 82.32 47.28
	L 82.63 48.23
	M 82.02 46.33
	L 81.86 47.32
	L 81.27 48.13
	M 81.86 47.32
	L 81.7 48.31
	L 82.01 49.26
	L 82.72 49.97
	M 82.01 49.26
	L 82.32 50.21
	L 82.16 51.2
	L 82.47 52.15
	M 82.16 51.2
	L 82.01 52.19
	M 82.32 50.21
	L 82.63 51.16
	L 82.47 52.15
	M 82.63 51.16
	L 82.94 52.11
	L 83.65 52.82
	M 82.94 52.11
	L 83.25 53.06
	L 83.96 53.77
	L 84.91 54.08
	M 83.96 53.77
	L 84.66 54.48
	M 83.25 53.06
	L 83.56 54.01
	L 83.4 55
	M 83.56 54.01
	L 83.87 54.97
	L 84.57 55.67
	M 83.87 54.97
	L 84.17 55.92
	L 84.02 56.9
	L 84.33 57.86
	M 84.02 56.9
	L 83.86 57.89
	L 83.27 58.7
	L 83.12 59.69
	M 83.27 58.7
	L 82.69 59.51
	M 83.86 57.89
	L 83.71 58.88
	L 83.12 59.69
	M 83.71 58.88
	L 83.55 59.87
	L 83.86 60.82
	M 83.55 59.87
	L 83.39 60.85
	M 84.17 55.92
	L 84.48 56.87
	L 85.19 57.57
	M 84.48 56.87
	L 84.79 57.82
	L 84.64 58.81
	L 84.95 59.76
	M 84.64 58.81
	L 84.48 59.79
	M 84.79 57.82
	L 85.1 58.77
	L 85.81 59.48
	M 85.1 58.77
	L 85.41 59.72
	L 86.12 60.43
	L 86.43 61.38
	M 86.12 60.43
	L 86.83 61.13
	M 85.41 59.72
	L 85.72 60.67
	L 85.56 61.66
	M 85.72 60.67
	L 86.03 61.62
	L 86.74 62.33
	M 86.03 61.62
	L 86.34 62.57
	L 87.05 63.28
	L 88 63.59
	M 87.05 63.28
	L 87.75 63.99
	L 88.06 64.94
	L 87.9 65.93
	M 88.06 64.94
	L 88.37 65.89
	L 89.08 66.6
	M 88.37 65.89
	L 88.68 66.84
	M 87.75 63.99
	L 88.46 64.7
	L 89.41 65
	M 88.46 64.7
	L 89.17 65.4
	L 90.12 65.71
	L 90.82 66.42
	M 90.12 65.71
	L 91.07 66.02
	L 92.06 65.86
	M 91.07 66.02
	L 92.02 66.33
	M 89.17 65.4
	L 89.87 66.11
	L 90.18 67.06
	M 89.87 66.11
	L 90.58 66.82
	L 91.53 67.13
	M 90.58 66.82
	L 91.29 67.52
	M 86.34 62.57
	L 86.65 63.52
	L 87.35 64.23
	M 86.65 63.52
	L 86.96 64.48
	L 87.66 65.18
	L 88.61 65.49
	M 87.66 65.18
	L 88.37 65.89
	M 86.96 64.48
	L 87.27 65.43
	L 87.11 66.41
	M 87.27 65.43
	L 87.57 66.38
	L 88.28 67.09
	M 87.57 66.38
	L 87.88 67.33
	M 81.7 48.31
	L 81.55 49.3
	L 81.86 50.25
	M 81.55 49.3
	L 81.39 50.28
	L 81.7 51.23
	L 82.41 51.94
	M 81.7 51.23
	L 82.01 52.19
	M 81.39 50.28
	L 81.23 51.27
	L 81.54 52.22
	M 81.23 51.27
	L 81.08 52.26
	L 80.49 53.07
	L 79.6 53.52
	M 80.49 53.07
	L 79.9 53.88
	L 79.75 54.86
	M 79.9 53.88
	L 79.31 54.69
	L 78.42 55.14
	L 77.42 55.14
	M 78.42 55.14
	L 77.53 55.59
	L 76.94 56.4
	M 77.53 55.59
	L 76.64 56.05
	M 79.31 54.69
	L 78.73 55.49
	L 78.57 56.48
	M 78.73 55.49
	L 78.14 56.3
	L 77.98 57.29
	L 78.29 58.24
	M 77.98 57.29
	L 77.83 58.28
	M 78.14 56.3
	L 77.55 57.11
	L 76.66 57.57
	M 77.55 57.11
	L 76.96 57.92
	M 81.08 52.26
	L 80.92 53.25
	L 80.33 54.06
	M 80.92 53.25
	L 80.76 54.23
	L 80.18 55.04
	L 80.02 56.03
	M 80.18 55.04
	L 79.59 55.85
	M 80.76 54.23
	L 80.61 55.22
	L 80.02 56.03
	M 80.61 55.22
	L 80.45 56.21
	L 80.76 57.16
	L 80.6 58.15
	M 80.76 57.16
	L 81.07 58.11
	M 80.45 56.21
	L 80.29 57.2
	L 79.71 58.01
	M 80.29 57.2
	L 80.14 58.18
	L 80.45 59.14
	M 80.14 58.18
	L 79.98 59.17
	M 91.25 -11.94
	L 92.23 -11.78
	L 93.22 -11.63
	L 94.21 -11.47
	L 95.2 -11.32
	L 96.15 -11.01
	L 97.1 -10.7
	L 98.05 -10.39
	L 99 -10.08
	L 99.89 -9.625
	L 100.8 -9.171
	L 101.7 -8.717
	L 102.6 -8.263
	L 103.4 -7.676
	L 104.2 -7.088
	L 105 -6.5
	L 105.8 -5.912
	L 106.5 -5.205
	L 107.2 -4.498
	L 107.9 -3.791
	L 108.6 -3.084
	L 109.4 -2.496
	L 110.2 -1.908
	L 111.1 -1.32
	L 111.9 -0.7326
	L 112.8 -0.2786
	L 113.6 0.1754
	L 114.5 0.6294
	L 115.4 1.083
	L 116.4 1.392
	L 117.3 1.701
	L 118.3 2.01
	L 119.2 2.319
	L 120.1 2.773
	L 121 3.227
	L 121.9 3.681
	L 122.8 4.135
	L 123.7 4.444
	L 124.7 4.753
	L 125.7 5.062
	L 126.6 5.371
	L 127.5 5.825
	L 128.4 6.279
	L 129.3 6.733
	L 130.2 7.187
	L 131.1 7.496
	L 132.1 7.805
	L 133 8.114
	L 134 8.423
	L 135 8.58
	L 135.9 8.736
	L 136.9 8.893
	L 137.9 9.049
	L 138.9 9.049
	L 139.9 9.049
	L 140.9 9.049
	L 141.9 9.049
	L 142.9 8.893
	L 143.9 8.736
	L 144.9 8.58
	L 145.9 8.423
	L 146.9 8.423
	L 147.9 8.423
	L 148.9 8.423
	L 149.9 8.423
	L 150.9 8.267
	L 151.8 8.111
	L 152.8 7.954
	L 153.8 7.798
	L 154.8 7.798
	L 155.8 7.798
	L 156.8 7.798
	L 157.8 7.798
	L 158.8 7.954
	L 159.8 8.111
	L 160.8 8.267
	L 161.8 8.423
	L 162.8 8.423
	L 163.8 8.423
	L 164.8 8.423
	L 165.8 8.423
	L 166.8 8.267
	L 167.7 8.111
	L 168.7 7.954
	L 169.7 7.798
	L 170.7 7.798
	L 171.7 7.798
	L 172.7 7.798
	L 173.7 7.798
	L 174.7 7.954
	L 175.7 8.111
	L 176.7 8.267
	L 177.7 8.423
	L 178.6 8.732
	L 179.6 9.042
	L 180.5 9.351
	L 181.5 9.66
	L 182.4 10.11
	L 183.3 10.57
	L 184.2 11.02
	L 185 11.48
	L 185.9 12.06
	L 186.7 12.65
	L 187.5 13.24
	L 188.3 13.83
	L 189 14.53
	L 189.7 15.24
	L 190.4 15.95
	L 191.1 16.66
	L 191.9 17.24
	L 192.7 17.83
	L 193.5 18.42
	L 194.3 19.01
	L 195.2 19.46
	L 196.1 19.91
	L 197 20.37
	L 197.9 20.82
	L 198.9 21.13
	L 199.8 21.44
	L 200.8 21.75
	L 201.7 22.06
	L 202.7 22.21
	L 203.7 22.37
	L 204.7 22.53
	L 205.7 22.68
	L 206.7 22.68
	L 207.7 22.68
"/>
</svg>
