<svg version="1.1" baseProfile="full" xmlns="http://www.w3.org/2000/svg"
width="187.1" height="1024"
viewBox="-7.192 -78 14.43 79"
>
<rect x="-7.192" y="-78" width="100%" height="100%" fill="white" />
<path stroke="green" stroke-width="0.04" stroke-linecap="round" fill="none"
transform="scale(1 -1)"
d="	M 0 0
	L 0 1
	L -0.2079 1.978
	M 0 1
	L 0 2
	L 0.2079 2.978
	L 0.6146 3.892
	M 0.2079 2.978
	L 0.4158 3.956
	M 0 2
	L 0 3
	L -0.2079 3.978
	M 0 3
	L 0 4
	L 0.2079 4.978
	M 0 4
	L 0 5
	L 0.2079 5.978
	L 0.6146 6.892
	M 0.2079 5.978
	L 0.4158 6.956
	L 0.8226 7.87
	L 1.03 8.848
	M 0.8226 7.87
	L 1.229 8.783
	M 0.4158 6.956
	L 0.6237 7.934
	L 0.6237 8.934
	M 0.6237 7.934
	L 0.8316 8.913
	M 0 5
	L 0 6
	L 0.2079 6.978
	M 0 6
	L 0 7
	L -0.2079 7.978
	L -0.2079 8.978
	M -0.2079 7.978
	L -0.4158 8.956
	M 0 7
	L 0 8
	L -0.2079 8.978
	M 0 8
	L 0 9
	L 0.2079 9.978
	M 0 9
	L 0 10
	L -0.2079 10.98
	L -0.6146 11.89
	M -0.2079 10.98
	L -0.4158 11.96
	L -0.8226 12.87
	L -1.03 13.85
	M -0.8226 12.87
	L -1.229 13.78
	M -0.4158 11.96
	L -0.6237 12.93
	L -1.03 13.85
	M -0.6237 12.93
	L -0.8316 13.91
	L -0.8316 14.91
	L -1.04 15.89
	M -0.8316 14.91
	L -0.8316 15.91
	L -0.6237 16.89
	M -0.8316 15.91
	L -0.8316 16.91
	M -0.8316 13.91
	L -1.04 14.89
	L -1.446 15.8
	M -1.04 14.89
	L -1.247 15.87
	L -1.247 16.87
	M -1.247 15.87
	L -1.455 16.85
	L -1.455 17.85
	L -1.663 18.83
	M -1.455 17.85
	L -1.455 18.85
	L -1.247 19.83
	M -1.455 18.85
	L -1.455 19.85
	L -1.663 20.83
	L -1.663 21.83
	M -1.663 20.83
	L -1.871 21.8
	M -1.455 19.85
	L -1.455 20.85
	L -1.663 21.83
	M -1.455 20.85
	L -1.455 21.85
	L -1.247 22.83
	M -1.455 21.85
	L -1.455 22.85
	M -1.455 16.85
	L -1.663 17.83
	L -2.07 18.74
	M -1.663 17.83
	L -1.871 18.8
	L -2.278 19.72
	L -2.866 20.53
	M -2.278 19.72
	L -2.685 20.63
	M -1.871 18.8
	L -2.079 19.78
	L -2.486 20.7
	M -2.079 19.78
	L -2.287 20.76
	L -2.287 21.76
	M -2.287 20.76
	L -2.495 21.74
	L -2.495 22.74
	L -2.287 23.72
	M -2.495 22.74
	L -2.495 23.74
	M -2.495 21.74
	L -2.703 22.72
	L -3.11 23.63
	M -2.703 22.72
	L -2.911 23.69
	M 0 10
	L 0 11
	L -0.2079 11.98
	M 0 11
	L 0 12
	L -0.2079 12.98
	L -0.6146 13.89
	M -0.2079 12.98
	L -0.4158 13.96
	L -0.4158 14.96
	M -0.4158 13.96
	L -0.6237 14.93
	M 0 12
	L 0 13
	L -0.2079 13.98
	M 0 13
	L 0 14
	L 0.2079 14.98
	M 0 14
	L 0 15
	L 0.2079 15.98
	L 0.6146 16.89
	M 0.2079 15.98
	L 0.4158 16.96
	M 0 15
	L 0 16
	L -0.2079 16.98
	M 0 16
	L 0 17
	L 0.2079 17.98
	M 0 17
	L 0 18
	L -0.2079 18.98
	L -0.6146 19.89
	M -0.2079 18.98
	L -0.4158 19.96
	L -0.4158 20.96
	M -0.4158 19.96
	L -0.6237 20.93
	L -0.6237 21.93
	L -0.8316 22.91
	M -0.6237 21.93
	L -0.6237 22.93
	M -0.6237 20.93
	L -0.8316 21.91
	L -1.238 22.83
	M -0.8316 21.91
	L -1.04 22.89
	M 0 18
	L 0 19
	L -0.2079 19.98
	M 0 19
	L 0 20
	L 0.2079 20.98
	M 0 20
	L 0 21
	L 0.2079 21.98
	L 0.2079 22.98
	M 0.2079 21.98
	L 0.4158 22.96
	L 0.8226 23.87
	M 0.4158 22.96
	L 0.6237 23.93
	M 0 21
	L 0 22
	L 0.2079 22.98
	M 0 22
	L 0 23
	L 0.2079 23.98
	L 0.6146 24.89
	M 0.2079 23.98
	L 0.4158 24.96
	L 0.8226 25.87
	L 1.03 26.85
	M 0.8226 25.87
	L 1.229 26.78
	L 1.817 27.59
	M 1.229 26.78
	L 1.636 27.7
	M 0.4158 24.96
	L 0.6237 25.93
	L 1.03 26.85
	M 0.6237 25.93
	L 0.8316 26.91
	M 0 23
	L 0 24
	L -0.2079 24.98
	M 0 24
	L 0 25
	L 0.2079 25.98
	L 0.2079 26.98
	M 0.2079 25.98
	L 0.4158 26.96
	M 0 25
	L 0 26
	L 0.2079 26.98
	M 0 26
	L 0 27
	L 0.2079 27.98
	L 0.2079 28.98
	M 0.2079 27.98
	L 0.4158 28.96
	L 0.4158 29.96
	L 0.2079 30.93
	M 0.4158 29.96
	L 0.4158 30.96
	M 0.4158 28.96
	L 0.6237 29.93
	L 0.6237 30.93
	M 0.6237 29.93
	L 0.8316 30.91
	L 1.238 31.83
	L 1.826 32.64
	M 1.238 31.83
	L 1.645 32.74
	M 0.8316 30.91
	L 1.04 31.89
	L 1.04 32.89
	M 1.04 31.89
	L 1.247 32.87
	L 1.654 33.78
	L 1.862 34.76
	M 1.654 33.78
	L 2.061 34.7
	L 2.269 35.67
	L 2.269 36.67
	M 2.269 35.67
	L 2.477 36.65
	M 2.061 34.7
	L 2.468 35.61
	L 3.055 36.42
	M 2.468 35.61
	L 2.874 36.52
	L 3.462 37.33
	L 3.869 38.25
	M 3.462 37.33
	L 4.05 38.14
	L 4.793 38.81
	M 4.05 38.14
	L 4.638 38.95
	M 2.874 36.52
	L 3.281 37.44
	L 3.489 38.41
	M 3.281 37.44
	L 3.688 38.35
	L 4.276 39.16
	M 3.688 38.35
	L 4.095 39.26
	M 1.247 32.87
	L 1.455 33.85
	L 1.455 34.85
	M 1.455 33.85
	L 1.663 34.83
	L 2.07 35.74
	M 1.663 34.83
	L 1.871 35.8
	L 1.871 36.8
	L 2.079 37.78
	M 1.871 36.8
	L 1.871 37.8
	M 1.871 35.8
	L 2.079 36.78
	L 2.079 37.78
	M 2.079 36.78
	L 2.287 37.76
	L 2.694 38.67
	L 2.902 39.65
	M 2.694 38.67
	L 3.101 39.59
	L 3.688 40.4
	M 3.101 39.59
	L 3.507 40.5
	M 2.287 37.76
	L 2.495 38.74
	L 2.495 39.74
	M 2.495 38.74
	L 2.703 39.72
	L 3.11 40.63
	M 2.703 39.72
	L 2.911 40.69
	M 0 27
	L 0 28
	L -0.2079 28.98
	M 0 28
	L 0 29
	L 0.2079 29.98
	M 0 29
	L 0 30
	L -0.2079 30.98
	L -0.2079 31.98
	M -0.2079 30.98
	L -0.4158 31.96
	M 0 30
	L 0 31
	L 0.2079 31.98
	M 0 31
	L 0 32
	L -0.2079 32.98
	L -0.6146 33.89
	M -0.2079 32.98
	L -0.4158 33.96
	L -0.8226 34.87
	L -1.41 35.68
	M -0.8226 34.87
	L -1.229 35.78
	M -0.4158 33.96
	L -0.6237 34.93
	L -1.03 35.85
	M -0.6237 34.93
	L -0.8316 35.91
	L -0.8316 36.91
	M -0.8316 35.91
	L -1.04 36.89
	M 0 32
	L 0 33
	L 0.2079 33.98
	M 0 33
	L 0 34
	L 0.2079 34.98
	L 0.2079 35.98
	M 0.2079 34.98
	L 0.4158 35.96
	M 0 34
	L 0 35
	L 0.2079 35.98
	M 0 35
	L 0 36
	L -0.2079 36.98
	L -0.6146 37.89
	M -0.2079 36.98
	L -0.4158 37.96
	L -0.4158 38.96
	M -0.4158 37.96
	L -0.6237 38.93
	L -1.03 39.85
	L -1.618 40.66
	M -1.03 39.85
	L -1.437 40.76
	L -1.645 41.74
	M -1.437 40.76
	L -1.844 41.68
	M -0.6237 38.93
	L -0.8316 39.91
	L -1.238 40.83
	M -0.8316 39.91
	L -1.04 40.89
	L -1.04 41.89
	M -1.04 40.89
	L -1.247 41.87
	L -1.247 42.87
	L -1.04 43.85
	M -1.247 42.87
	L -1.247 43.87
	M -1.247 41.87
	L -1.455 42.85
	L -1.455 43.85
	M -1.455 42.85
	L -1.663 43.83
	L -1.663 44.83
	L -1.871 45.8
	M -1.663 44.83
	L -1.663 45.83
	L -1.455 46.8
	M -1.663 45.83
	L -1.663 46.83
	L -1.455 47.8
	L -1.455 48.8
	M -1.455 47.8
	L -1.247 48.78
	L -0.8407 49.7
	M -1.247 48.78
	L -1.04 49.76
	M -1.663 46.83
	L -1.663 47.83
	L -1.871 48.8
	M -1.663 47.83
	L -1.663 48.83
	L -1.455 49.8
	M -1.663 48.83
	L -1.663 49.83
	M -1.663 43.83
	L -1.871 44.8
	L -2.278 45.72
	M -1.871 44.8
	L -2.079 45.78
	L -2.486 46.7
	L -2.694 47.67
	M -2.486 46.7
	L -2.893 47.61
	M -2.079 45.78
	L -2.287 46.76
	L -2.694 47.67
	M -2.287 46.76
	L -2.495 47.74
	L -2.495 48.74
	L -2.703 49.72
	M -2.495 48.74
	L -2.495 49.74
	M -2.495 47.74
	L -2.703 48.72
	L -3.11 49.63
	M -2.703 48.72
	L -2.911 49.69
	L -2.911 50.69
	L -3.119 51.67
	M -2.911 50.69
	L -2.911 51.69
	L -3.119 52.67
	L -3.119 53.67
	M -3.119 52.67
	L -3.327 53.65
	M -2.911 51.69
	L -2.911 52.69
	L -2.703 53.67
	M -2.911 52.69
	L -2.911 53.69
	L -2.703 54.67
	L -2.296 55.59
	M -2.703 54.67
	L -2.495 55.65
	M -2.911 53.69
	L -2.911 54.69
	L -3.119 55.67
	M -2.911 54.69
	L -2.911 55.69
	L -2.703 56.67
	M -2.911 55.69
	L -2.911 56.69
	L -3.119 57.67
	L -3.525 58.59
	M -3.119 57.67
	L -3.327 58.65
	L -3.327 59.65
	M -3.327 58.65
	L -3.534 59.63
	L -3.941 60.54
	L -4.529 61.35
	M -3.941 60.54
	L -4.348 61.46
	M -3.534 59.63
	L -3.742 60.61
	L -3.742 61.61
	M -3.742 60.61
	L -3.95 61.58
	M -2.911 56.69
	L -2.911 57.69
	L -3.119 58.67
	M -2.911 57.69
	L -2.911 58.69
	L -3.119 59.67
	L -3.119 60.67
	M -3.119 59.67
	L -3.327 60.65
	M -2.911 58.69
	L -2.911 59.69
	L -3.119 60.67
	M -2.911 59.69
	L -2.911 60.69
	L -2.703 61.67
	M -2.911 60.69
	L -2.911 61.69
	M -2.911 49.69
	L -3.119 50.67
	L -3.525 51.59
	M -3.119 50.67
	L -3.327 51.65
	L -3.733 52.56
	L -4.321 53.37
	M -3.733 52.56
	L -4.14 53.48
	L -4.348 54.46
	M -4.14 53.48
	L -4.547 54.39
	M -3.327 51.65
	L -3.534 52.63
	L -3.534 53.63
	M -3.534 52.63
	L -3.742 53.61
	L -3.742 54.61
	L -3.95 55.58
	M -3.742 54.61
	L -3.742 55.61
	L -3.534 56.58
	M -3.742 55.61
	L -3.742 56.61
	M -3.742 53.61
	L -3.95 54.58
	L -4.357 55.5
	M -3.95 54.58
	L -4.158 55.56
	L -4.565 56.48
	L -4.773 57.45
	M -4.565 56.48
	L -4.972 57.39
	L -5.18 58.37
	L -5.586 59.28
	M -5.18 58.37
	L -5.388 59.35
	L -5.388 60.35
	M -5.388 59.35
	L -5.595 60.32
	M -4.972 57.39
	L -5.378 58.3
	L -5.966 59.11
	M -5.378 58.3
	L -5.785 59.22
	L -5.993 60.2
	M -5.785 59.22
	L -6.192 60.13
	M -4.158 55.56
	L -4.366 56.54
	L -4.366 57.54
	M -4.366 56.54
	L -4.574 57.52
	L -4.981 58.43
	L -5.569 59.24
	M -4.981 58.43
	L -5.388 59.35
	L -5.595 60.32
	M -5.388 59.35
	L -5.794 60.26
	M -4.574 57.52
	L -4.782 58.5
	L -5.189 59.41
	M -4.782 58.5
	L -4.99 59.48
	L -4.99 60.48
	L -5.198 61.45
	M -4.99 60.48
	L -4.99 61.48
	M -4.99 59.48
	L -5.198 60.45
	L -5.198 61.45
	M -5.198 60.45
	L -5.406 61.43
	M 0 36
	L 0 37
	L -0.2079 37.98
	M 0 37
	L 0 38
	L 0.2079 38.98
	L 0.6146 39.89
	M 0.2079 38.98
	L 0.4158 39.96
	M 0 38
	L 0 39
	L -0.2079 39.98
	M 0 39
	L 0 40
	L 0.2079 40.98
	M 0 40
	L 0 41
	L -0.2079 41.98
	L -0.2079 42.98
	M -0.2079 41.98
	L -0.4158 42.96
	L -0.4158 43.96
	L -0.6237 44.93
	M -0.4158 43.96
	L -0.4158 44.96
	L -0.2079 45.93
	M -0.4158 44.96
	L -0.4158 45.96
	M -0.4158 42.96
	L -0.6237 43.93
	L -1.03 44.85
	M -0.6237 43.93
	L -0.8316 44.91
	L -0.8316 45.91
	M -0.8316 44.91
	L -1.04 45.89
	M 0 41
	L 0 42
	L -0.2079 42.98
	M 0 42
	L 0 43
	L 0.2079 43.98
	L 0.6146 44.89
	M 0.2079 43.98
	L 0.4158 44.96
	M 0 43
	L 0 44
	L 0.2079 44.98
	M 0 44
	L 0 45
	L -0.2079 45.98
	L -0.6146 46.89
	M -0.2079 45.98
	L -0.4158 46.96
	L -0.4158 47.96
	M -0.4158 46.96
	L -0.6237 47.93
	L -0.6237 48.93
	L -0.4158 49.91
	M -0.6237 48.93
	L -0.6237 49.93
	M -0.6237 47.93
	L -0.8316 48.91
	L -1.238 49.83
	M -0.8316 48.91
	L -1.04 49.89
	L -1.04 50.89
	L -1.247 51.87
	M -1.04 50.89
	L -1.04 51.89
	L -0.8316 52.87
	L -0.4249 53.78
	M -0.8316 52.87
	L -0.6237 53.85
	M -1.04 51.89
	L -1.04 52.89
	L -1.247 53.87
	M -1.04 52.89
	L -1.04 53.89
	L -0.8316 54.87
	M -1.04 53.89
	L -1.04 54.89
	M -1.04 49.89
	L -1.247 50.87
	L -1.654 51.78
	M -1.247 50.87
	L -1.455 51.85
	L -1.455 52.85
	M -1.455 51.85
	L -1.663 52.83
	L -1.663 53.83
	L -1.871 54.8
	M -1.663 53.83
	L -1.663 54.83
	L -1.455 55.8
	M -1.663 54.83
	L -1.663 55.83
	M -1.663 52.83
	L -1.871 53.8
	L -2.278 54.72
	M -1.871 53.8
	L -2.079 54.78
	M 0 45
	L 0 46
	L 0.2079 46.98
	M 0 46
	L 0 47
	L -0.2079 47.98
	L -0.6146 48.89
	M -0.2079 47.98
	L -0.4158 48.96
	M 0 47
	L 0 48
	L -0.2079 48.98
	M 0 48
	L 0 49
	L 0.2079 49.98
	L 0.6146 50.89
	M 0.2079 49.98
	L 0.4158 50.96
	M 0 49
	L 0 50
	L -0.2079 50.98
	M 0 50
	L 0 51
	L 0.2079 51.98
	M 0 51
	L 0 52
	L -0.2079 52.98
	L -0.2079 53.98
	M -0.2079 52.98
	L -0.4158 53.96
	L -0.8226 54.87
	L -1.41 55.68
	M -0.8226 54.87
	L -1.229 55.78
	M -0.4158 53.96
	L -0.6237 54.93
	L -1.03 55.85
	M -0.6237 54.93
	L -0.8316 55.91
	L -0.8316 56.91
	M -0.8316 55.91
	L -1.04 56.89
	L -1.04 57.89
	L -1.247 58.87
	M -1.04 57.89
	L -1.04 58.89
	L -0.8316 59.87
	M -1.04 58.89
	L -1.04 59.89
	M -1.04 56.89
	L -1.247 57.87
	L -1.247 58.87
	M -1.247 57.87
	L -1.455 58.85
	M 0 52
	L 0 53
	L 0.2079 53.98
	M 0 53
	L 0 54
	L -0.2079 54.98
	L -0.6146 55.89
	M -0.2079 54.98
	L -0.4158 55.96
	L -0.4158 56.96
	M -0.4158 55.96
	L -0.6237 56.93
	M 0 54
	L 0 55
	L 0.2079 55.98
	M 0 55
	L 0 56
	L 0.2079 56.98
	L 0.2079 57.98
	M 0.2079 56.98
	L 0.4158 57.96
	M 0 56
	L 0 57
	L -0.2079 57.98
	M 0 57
	L 0 58
	L 0.2079 58.98
	L 0.2079 59.98
	M 0.2079 58.98
	L 0.4158 59.96
	L 0.8226 60.87
	M 0.4158 59.96
	L 0.6237 60.93
	L 1.03 61.85
	L 1.238 62.83
	M 1.03 61.85
	L 1.437 62.76
	L 2.025 63.57
	M 1.437 62.76
	L 1.844 63.68
	M 0.6237 60.93
	L 0.8316 61.91
	L 0.8316 62.91
	M 0.8316 61.91
	L 1.04 62.89
	L 1.446 63.8
	M 1.04 62.89
	L 1.247 63.87
	L 1.247 64.87
	L 1.04 65.85
	M 1.247 64.87
	L 1.247 65.87
	L 1.455 66.85
	M 1.247 65.87
	L 1.247 66.87
	L 1.455 67.85
	L 1.455 68.85
	M 1.455 67.85
	L 1.663 68.83
	M 1.247 66.87
	L 1.247 67.87
	L 1.04 68.85
	M 1.247 67.87
	L 1.247 68.87
	L 1.455 69.85
	M 1.247 68.87
	L 1.247 69.87
	M 1.247 63.87
	L 1.455 64.85
	L 1.455 65.85
	M 1.455 64.85
	L 1.663 65.83
	L 1.663 66.83
	L 1.455 67.8
	M 1.663 66.83
	L 1.663 67.83
	M 1.663 65.83
	L 1.871 66.8
	L 1.871 67.8
	M 1.871 66.8
	L 2.079 67.78
	L 2.486 68.7
	M 2.079 67.78
	L 2.287 68.76
	L 2.694 69.67
	L 2.902 70.65
	M 2.694 69.67
	L 3.101 70.59
	L 3.688 71.4
	M 3.101 70.59
	L 3.507 71.5
	L 3.715 72.48
	L 3.715 73.48
	M 3.715 72.48
	L 3.923 73.46
	L 4.33 74.37
	M 3.923 73.46
	L 4.131 74.43
	M 3.507 71.5
	L 3.914 72.41
	L 4.122 73.39
	M 3.914 72.41
	L 4.321 73.33
	L 4.908 74.14
	L 5.315 75.05
	M 4.908 74.14
	L 5.496 74.95
	L 6.239 75.61
	M 5.496 74.95
	L 6.084 75.75
	M 4.321 73.33
	L 4.727 74.24
	L 4.935 75.22
	M 4.727 74.24
	L 5.134 75.15
	M 2.287 68.76
	L 2.495 69.74
	L 2.495 70.74
	M 2.495 69.74
	L 2.703 70.72
	L 3.11 71.63
	L 3.318 72.61
	M 3.11 71.63
	L 3.516 72.54
	L 4.104 73.35
	M 3.516 72.54
	L 3.923 73.46
	M 2.703 70.72
	L 2.911 71.69
	L 3.318 72.61
	M 2.911 71.69
	L 3.119 72.67
	M 0 58
	L 0 59
	L -0.2079 59.98
	M 0 59
	L 0 60
	L 0.2079 60.98
	M 0 60
	L 0 61
	L -0.2079 61.98
	L -0.6146 62.89
	M -0.2079 61.98
	L -0.4158 62.96
	L -0.4158 63.96
	M -0.4158 62.96
	L -0.6237 63.93
	M 0 61
	L 0 62
	L -0.2079 62.98
	M 0 62
	L 0 63
	L 0.2079 63.98
	M 0 63
	L 0 64
	L -0.2079 64.98
	L -0.6146 65.89
	M -0.2079 64.98
	L -0.4158 65.96
	L -0.8226 66.87
	L -1.41 67.68
	M -0.8226 66.87
	L -1.229 67.78
	M -0.4158 65.96
	L -0.6237 66.93
	L -0.6237 67.93
	M -0.6237 66.93
	L -0.8316 67.91
	L -0.8316 68.91
	L -0.6237 69.89
	M -0.8316 68.91
	L -0.8316 69.91
	M -0.8316 67.91
	L -1.04 68.89
	L -1.446 69.8
	M -1.04 68.89
	L -1.247 69.87
	L -1.247 70.87
	M -1.247 69.87
	L -1.455 70.85
	M 0 64
	L 0 65
	L -0.2079 65.98
	M 0 65
	L 0 66
	L 0.2079 66.98
	M 0 66
	L 0 67
	L -0.2079 67.98
	L -0.6146 68.89
	M -0.2079 67.98
	L -0.4158 68.96
	L -0.4158 69.96
	M -0.4158 68.96
	L -0.6237 69.93
	M 0 67
	L 0 68
	L 0.2079 68.98
	M 0 68
	L 0 69
	L 0.2079 69.98
	L 0.6146 70.89
	M 0.2079 69.98
	L 0.4158 70.96
	M 0 69
	L 0 70
	L -0.2079 70.98
	M 0 70
	L 0 71
	L 0.2079 71.98
	L 0.2079 72.98
	M 0.2079 71.98
	L 0.4158 72.96
	L 0.8226 73.87
	M 0.4158 72.96
	L 0.6237 73.93
	L 1.03 74.85
	L 1.238 75.83
	M 1.03 74.85
	L 1.437 75.76
	L 2.025 76.57
	M 1.437 75.76
	L 1.844 76.68
	M 0.6237 73.93
	L 0.8316 74.91
	L 0.8316 75.91
	M 0.8316 74.91
	L 1.04 75.89
	M 0 71
	L 0 72
	L -0.2079 72.98
	M 0 72
	L 0 73
	L -0.2079 73.98
	L -0.6146 74.89
	M -0.2079 73.98
	L -0.4158 74.96
	M 0 73
	L 0 74
	L -0.2079 74.98
	M 0 74
	L 0 75
	L 0.2079 75.98
	L 0.2079 76.98
	M 0.2079 75.98
	L 0.4158 76.96
	M 0 75
	L 0 76
	L -0.2079 76.98
	M 0 76
	L 0 77
"/>
</svg>
